<svg width="1179" height="509" viewBox="0 0 1179 509" fill="none" xmlns="http://www.w3.org/2000/svg">
<g filter="url(#filter0_d)">
<rect x="20" y="16" width="1139" height="469" rx="15" fill="url(#paint0_linear)"/>
<path d="M144.936 140H155.944L159.72 130.4H177.32L181.224 140H192.488L172.776 94.688H164.52L144.936 140ZM173.928 121.952H162.856L168.36 107.872L173.928 121.952ZM225.782 108.896H216.182V124.384C216.182 128.416 215.414 132.32 210.422 132.32C205.494 132.32 205.43 127.712 205.43 124.128V108.896H195.83V126.048C195.83 134.368 197.622 140.768 207.35 140.768C212.022 140.768 215.158 138.208 216.438 135.776H216.566V140H225.782V108.896ZM256.068 112.224C253.188 109.152 248.644 108.128 244.548 108.128C238.02 108.128 231.492 111.328 231.492 118.624C231.492 130.464 247.684 126.24 247.684 131.232C247.684 132.896 245.508 133.472 243.332 133.472C240.452 133.472 238.34 132.256 236.548 130.08L230.724 136.544C233.796 139.68 238.595 140.768 242.948 140.768C249.604 140.768 257.284 138.464 257.284 130.528C257.284 118.688 241.092 122.592 241.092 117.984C241.092 116.128 243.012 115.424 244.612 115.424C246.916 115.424 248.772 116.32 250.18 118.048L256.068 112.224ZM283.389 108.896H274.941V99.68H265.341V108.896H259.197V116.576H265.341V131.36C265.341 138.144 270.269 140.768 276.669 140.768C278.909 140.768 281.277 140.576 283.389 139.808V131.808C282.557 132.576 280.509 132.704 279.485 132.704C275.325 132.704 274.941 130.272 274.941 126.944V116.576H283.389V108.896ZM288.395 140H297.995V108.896H288.395V140ZM287.627 99.104C287.627 102.176 290.123 104.672 293.195 104.672C296.267 104.672 298.763 102.176 298.763 99.104C298.763 96.032 296.267 93.536 293.195 93.536C290.123 93.536 287.627 96.032 287.627 99.104ZM304.892 140H314.492V124.512C314.492 120.48 315.26 116.576 320.252 116.576C325.18 116.576 325.244 121.184 325.244 124.768V140H334.844V122.848C334.844 114.528 333.052 108.128 323.324 108.128C318.652 108.128 315.516 110.688 314.236 113.12H314.108V108.896H304.892V140ZM361.796 140H371.78V120.416H391.172V140H401.156V94.688H391.172V111.584H371.78V94.688H361.796V140ZM439.094 108.896H429.494V124.384C429.494 128.416 428.726 132.32 423.734 132.32C418.806 132.32 418.742 127.712 418.742 124.128V108.896H409.142V126.048C409.142 134.368 410.934 140.768 420.662 140.768C425.334 140.768 428.47 138.208 429.75 135.776H429.878V140H439.094V108.896ZM445.892 140H455.492V124.512C455.492 120.48 456.26 116.576 461.252 116.576C465.668 116.576 465.54 121.248 465.54 123.552V140H475.14V123.552C475.14 119.712 476.548 116.576 480.964 116.576C484.1 116.576 485.188 119.008 485.188 121.888V140H494.788V121.632C494.788 114.08 492.228 108.128 483.78 108.128C479.172 108.128 476.164 109.728 473.924 113.696C472.26 109.92 468.676 108.128 464.324 108.128C459.652 108.128 456.516 110.688 455.236 113.12H455.108V108.896H445.892V140ZM521.1 140H529.932V124.192C529.932 113.824 526.924 108.128 515.724 108.128C510.668 108.128 505.548 109.792 502.028 113.12L507.148 118.368C509.196 116.064 511.82 114.656 514.956 114.656C518.284 114.656 521.1 116.832 521.1 120.224C513.1 120.224 500.044 120.416 500.044 131.168C500.044 137.44 505.292 140.768 511.116 140.768C515.02 140.768 518.86 139.424 520.972 136.096H521.1V140ZM521.1 126.368V128.416C521.1 132.256 517.58 134.24 513.804 134.24C511.692 134.24 509.26 133.152 509.26 130.848C509.26 126.624 515.788 126.368 518.732 126.368H521.1ZM535.955 140H545.555V124.512C545.555 120.48 546.323 116.576 551.315 116.576C556.243 116.576 556.307 121.184 556.307 124.768V140H565.907V122.848C565.907 114.528 564.115 108.128 554.387 108.128C549.715 108.128 546.579 110.688 545.299 113.12H545.171V108.896H535.955V140ZM572.833 140H582.433V108.896H572.833V140ZM572.065 99.104C572.065 102.176 574.561 104.672 577.633 104.672C580.705 104.672 583.201 102.176 583.201 99.104C583.201 96.032 580.705 93.536 577.633 93.536C574.561 93.536 572.065 96.032 572.065 99.104ZM612.818 112.224C609.938 109.152 605.394 108.128 601.298 108.128C594.77 108.128 588.242 111.328 588.242 118.624C588.242 130.464 604.434 126.24 604.434 131.232C604.434 132.896 602.258 133.472 600.082 133.472C597.202 133.472 595.09 132.256 593.298 130.08L587.474 136.544C590.546 139.68 595.345 140.768 599.698 140.768C606.354 140.768 614.034 138.464 614.034 130.528C614.034 118.688 597.842 122.592 597.842 117.984C597.842 116.128 599.762 115.424 601.362 115.424C603.666 115.424 605.522 116.32 606.93 118.048L612.818 112.224ZM640.139 108.896H631.691V99.68H622.091V108.896H615.947V116.576H622.091V131.36C622.091 138.144 627.019 140.768 633.419 140.768C635.659 140.768 638.027 140.576 640.139 139.808V131.808C639.307 132.576 637.259 132.704 636.235 132.704C632.075 132.704 631.691 130.272 631.691 126.944V116.576H640.139V108.896ZM167.912 217H176.744V201.192C176.744 190.824 173.736 185.128 162.536 185.128C157.48 185.128 152.36 186.792 148.84 190.12L153.96 195.368C156.008 193.064 158.632 191.656 161.768 191.656C165.096 191.656 167.912 193.832 167.912 197.224C159.912 197.224 146.856 197.416 146.856 208.168C146.856 214.44 152.104 217.768 157.928 217.768C161.832 217.768 165.672 216.424 167.784 213.096H167.912V217ZM167.912 203.368V205.416C167.912 209.256 164.392 211.24 160.616 211.24C158.504 211.24 156.072 210.152 156.072 207.848C156.072 203.624 162.6 203.368 165.544 203.368H167.912ZM203.951 185.896H195.503V176.68H185.903V185.896H179.759V193.576H185.903V208.36C185.903 215.144 190.831 217.768 197.231 217.768C199.471 217.768 201.839 217.576 203.951 216.808V208.808C203.119 209.576 201.071 209.704 200.047 209.704C195.887 209.704 195.503 207.272 195.503 203.944V193.576H203.951V185.896ZM237.687 217H246.263L256.247 185.64H256.375L266.359 217H275.255L288.503 171.688H278.391L270.775 201.512H270.647L261.239 171.688H251.959L242.487 200.744H242.359L235.127 171.688H224.247L237.687 217ZM287.115 201.448C287.115 211.368 294.795 217.768 304.395 217.768C313.995 217.768 321.675 211.368 321.675 201.448C321.675 191.528 313.995 185.128 304.395 185.128C294.795 185.128 287.115 191.528 287.115 201.448ZM296.715 201.448C296.715 196.776 299.595 193.576 304.395 193.576C309.195 193.576 312.075 196.776 312.075 201.448C312.075 206.12 309.195 209.32 304.395 209.32C299.595 209.32 296.715 206.12 296.715 201.448ZM327.33 217H336.93V204.008C336.93 197.8 337.826 193.576 345.122 193.576C346.53 193.576 347.874 193.832 349.218 194.216V185.448C348.322 185.192 347.106 185.128 346.018 185.128C341.794 185.128 339.106 187.112 337.058 190.888H336.93V185.896H327.33V217ZM353.392 217H362.992V201.256H363.12L373.616 217H385.712L373.04 199.912L385.392 185.896H373.616L362.992 198.184V168.616H353.392V217ZM409.108 217H419.092V198.888H424.02L433.492 217H445.46L433.94 197.864C440.34 196.712 443.732 191.784 443.732 185.448C443.732 174.888 435.924 171.688 426.644 171.688H409.108V217ZM419.092 180.136H425.62C429.268 180.136 433.364 180.84 433.364 185.384C433.364 190.312 428.628 190.44 424.98 190.44H419.092V180.136ZM472.112 206.696C470.512 208.872 468.4 210.472 465.264 210.472C461.552 210.472 458.8 208.104 458.032 204.456H480.304V201.448C480.304 191.528 474.672 185.128 465.712 185.128C456.112 185.128 448.432 191.528 448.432 201.448C448.432 211.368 456.112 217.768 465.712 217.768C470.704 217.768 475.76 215.528 478.832 211.624L472.112 206.696ZM458.032 197.928C458.288 194.92 460.592 192.04 464.816 192.04C468.272 192.04 470.768 194.728 470.704 197.928H458.032ZM518.782 168.616H509.182V189.224H509.054C506.878 186.216 503.166 185.128 499.198 185.128C490.366 185.128 484.99 193.064 484.99 201.704C484.99 211.112 491.07 217.768 500.286 217.768C504.638 217.768 508.35 215.144 509.822 212.904H509.95V217H518.782V168.616ZM509.95 201.448C509.95 206.12 507.07 209.32 502.27 209.32C497.47 209.32 494.59 206.12 494.59 201.448C494.59 196.776 497.47 193.576 502.27 193.576C507.07 193.576 509.95 196.776 509.95 201.448ZM549.175 206.696C547.575 208.872 545.463 210.472 542.327 210.472C538.615 210.472 535.863 208.104 535.095 204.456H557.367V201.448C557.367 191.528 551.735 185.128 542.775 185.128C533.175 185.128 525.495 191.528 525.495 201.448C525.495 211.368 533.175 217.768 542.775 217.768C547.767 217.768 552.823 215.528 555.895 211.624L549.175 206.696ZM535.095 197.928C535.351 194.92 537.655 192.04 541.878 192.04C545.335 192.04 547.831 194.728 547.767 197.928H535.095ZM586.693 189.224C583.813 186.152 579.269 185.128 575.173 185.128C568.645 185.128 562.117 188.328 562.117 195.624C562.117 207.464 578.309 203.24 578.309 208.232C578.309 209.896 576.133 210.472 573.957 210.472C571.077 210.472 568.965 209.256 567.173 207.08L561.349 213.544C564.421 216.68 569.22 217.768 573.573 217.768C580.229 217.768 587.909 215.464 587.909 207.528C587.909 195.688 571.717 199.592 571.717 194.984C571.717 193.128 573.637 192.424 575.237 192.424C577.541 192.424 579.397 193.32 580.805 195.048L586.693 189.224ZM592.958 217H602.558V185.896H592.958V217ZM592.19 176.104C592.19 179.176 594.686 181.672 597.758 181.672C600.83 181.672 603.326 179.176 603.326 176.104C603.326 173.032 600.83 170.536 597.758 170.536C594.686 170.536 592.19 173.032 592.19 176.104ZM642.095 185.896H633.263V189.992H633.135C631.663 187.752 627.951 185.128 622.51 185.128C613.679 185.128 608.303 193.064 608.303 201.32C608.303 210.728 614.383 217.384 623.599 217.384C626.479 217.384 630.191 216.296 632.367 213.288H632.495V216.296C632.495 220.712 629.743 223.912 623.919 223.912C620.015 223.912 616.751 222.376 613.807 219.88L608.495 227.816C612.975 231.4 618.607 232.36 624.111 232.36C636.143 232.36 642.095 226.088 642.095 214.376V185.896ZM617.903 201.256C617.903 197.224 621.231 193.576 625.583 193.576C629.935 193.576 633.263 197.224 633.263 201.256C633.263 205.288 629.935 208.936 625.583 208.936C621.231 208.936 617.903 205.288 617.903 201.256ZM649.767 217H659.367V201.512C659.367 197.48 660.135 193.576 665.127 193.576C670.055 193.576 670.119 198.184 670.119 201.768V217H679.719V199.848C679.719 191.528 677.927 185.128 668.199 185.128C663.527 185.128 660.391 187.688 659.111 190.12H658.983V185.896H649.767V217Z" fill="white"/>
<path d="M147.8 273H154.328C157.664 273 162.656 270.768 162.656 264.504C162.656 258.24 157.664 256.008 154.328 256.008H147.8V273ZM149.816 257.88H153.656C157.544 257.88 160.496 259.848 160.496 264.504C160.496 269.16 157.544 271.128 153.656 271.128H149.816V257.88ZM174.181 269.856C173.293 270.984 172.213 271.56 170.605 271.56C168.565 271.56 167.077 269.904 166.933 267.96H176.005V267.36C176.005 263.64 173.845 261.48 170.677 261.48C167.365 261.48 164.917 263.904 164.917 267.384C164.917 270.648 167.077 273.288 170.605 273.288C172.693 273.288 174.277 272.664 175.597 270.96L174.181 269.856ZM166.933 266.376C167.173 264.48 168.541 263.208 170.605 263.208C172.669 263.208 173.917 264.48 173.989 266.376H166.933ZM177.653 271.2C178.757 272.784 180.125 273.288 182.021 273.288C184.253 273.288 186.509 272.304 186.509 269.76C186.509 267.504 184.829 266.784 182.837 266.4C181.349 266.112 180.005 265.704 180.005 264.768C180.005 263.712 181.181 263.208 182.213 263.208C183.317 263.208 184.109 263.76 184.589 264.552L186.149 263.52C185.381 262.08 183.917 261.48 182.333 261.48C180.245 261.48 178.133 262.608 178.133 264.792C178.133 267.12 179.957 267.576 182.093 268.056C183.293 268.32 184.493 268.632 184.493 269.832C184.493 271.056 183.197 271.56 182.021 271.56C180.701 271.56 179.885 270.96 179.141 270.048L177.653 271.2ZM189.288 273H191.16V261.768H189.288V273ZM188.856 257.376C188.856 258.168 189.432 258.744 190.224 258.744C191.016 258.744 191.592 258.168 191.592 257.376C191.592 256.632 190.992 256.008 190.224 256.008C189.456 256.008 188.856 256.632 188.856 257.376ZM206.093 261.768H204.221V263.688H204.173C203.429 262.2 201.725 261.48 200.213 261.48C196.637 261.48 194.237 263.712 194.237 267.384C194.237 270.696 196.685 273.144 200.213 273.144C201.701 273.144 203.285 272.496 204.173 271.056H204.221V272.496C204.221 274.872 203.333 277.032 199.973 277.032C198.245 277.032 196.973 276.36 195.797 275.088L194.453 276.624C196.037 278.184 197.789 278.76 199.973 278.76C203.909 278.76 206.093 276.552 206.093 272.496V261.768ZM196.253 267.384C196.253 265.032 197.861 263.208 200.213 263.208C202.589 263.208 204.221 264.912 204.221 267.336C204.221 269.496 202.781 271.416 200.213 271.416C198.029 271.416 196.253 269.664 196.253 267.384ZM209.557 273H211.429V267.528C211.429 264.96 212.485 263.208 214.909 263.208C216.661 263.208 217.477 264.384 217.477 266.256V273H219.349V266.064C219.349 263.352 218.029 261.48 215.077 261.48C213.229 261.48 211.837 262.512 211.333 263.616H211.285C211.285 262.992 211.237 262.368 211.237 261.768H209.461C209.461 262.512 209.557 263.4 209.557 264.432V273ZM223.061 273H224.933V261.768H223.061V273ZM222.629 257.376C222.629 258.168 223.205 258.744 223.997 258.744C224.789 258.744 225.365 258.168 225.365 257.376C225.365 256.632 224.765 256.008 223.997 256.008C223.229 256.008 222.629 256.632 222.629 257.376ZM228.659 273H230.531V267.528C230.531 264.96 231.587 263.208 234.011 263.208C235.763 263.208 236.579 264.384 236.579 266.256V273H238.451V266.064C238.451 263.352 237.131 261.48 234.179 261.48C232.331 261.48 230.939 262.512 230.435 263.616H230.387C230.387 262.992 230.339 262.368 230.339 261.768H228.563C228.563 262.512 228.659 263.4 228.659 264.432V273ZM253.203 261.768H251.331V263.688H251.283C250.539 262.2 248.835 261.48 247.323 261.48C243.747 261.48 241.347 263.712 241.347 267.384C241.347 270.696 243.795 273.144 247.323 273.144C248.811 273.144 250.395 272.496 251.283 271.056H251.331V272.496C251.331 274.872 250.443 277.032 247.083 277.032C245.355 277.032 244.083 276.36 242.907 275.088L241.563 276.624C243.147 278.184 244.899 278.76 247.083 278.76C251.019 278.76 253.203 276.552 253.203 272.496V261.768ZM243.363 267.384C243.363 265.032 244.971 263.208 247.323 263.208C249.699 263.208 251.331 264.912 251.331 267.336C251.331 269.496 249.891 271.416 247.323 271.416C245.139 271.416 243.363 269.664 243.363 267.384ZM264.378 264.432C265.266 263.616 266.514 263.208 267.714 263.208C269.466 263.208 270.498 264.048 270.498 265.68V266.016H269.778C267.018 266.016 262.698 266.232 262.698 269.952C262.698 272.136 264.594 273.288 266.874 273.288C268.578 273.288 269.826 272.472 270.57 271.32H270.618C270.618 271.8 270.618 272.496 270.738 273H272.538C272.442 272.424 272.37 271.704 272.37 271.056V266.232C272.37 263.064 270.978 261.48 267.666 261.48C266.034 261.48 264.354 262.032 263.202 263.208L264.378 264.432ZM270.498 267.6V268.32C270.45 270.144 269.346 271.704 267.186 271.704C265.77 271.704 264.714 271.176 264.714 269.76C264.714 268.248 266.25 267.6 268.626 267.6H270.498ZM282.471 273H284.343V267.528C284.343 264.96 285.399 263.208 287.823 263.208C289.359 263.208 289.983 264.168 289.983 266.64V273H291.855V266.52C291.855 264.504 293.175 263.208 294.759 263.208C296.943 263.208 297.495 264.72 297.495 266.28V273H299.367V266.184C299.367 263.28 298.311 261.48 295.095 261.48C293.391 261.48 292.359 262.296 291.543 263.616C291.183 262.848 290.415 261.48 287.991 261.48C286.143 261.48 284.751 262.512 284.247 263.616H284.199C284.199 262.992 284.151 262.368 284.151 261.768H282.375C282.375 262.512 282.471 263.4 282.471 264.432V273ZM302.261 267.384C302.261 270.888 304.805 273.288 308.261 273.288C311.717 273.288 314.261 270.888 314.261 267.384C314.261 263.88 311.717 261.48 308.261 261.48C304.805 261.48 302.261 263.88 302.261 267.384ZM304.277 267.384C304.277 265.032 305.837 263.208 308.261 263.208C310.685 263.208 312.245 265.032 312.245 267.384C312.245 269.736 310.685 271.56 308.261 271.56C305.837 271.56 304.277 269.736 304.277 267.384ZM317.063 273H318.935V271.008H318.983C319.679 272.28 321.287 273.288 323.303 273.288C326.447 273.288 328.919 270.744 328.919 267.384C328.919 263.976 326.543 261.48 323.015 261.48C321.383 261.48 320.015 262.2 318.983 263.4H318.935V254.856H317.063V273ZM318.935 267.384C318.935 265.032 320.495 263.208 322.919 263.208C325.343 263.208 326.903 265.032 326.903 267.384C326.903 269.736 325.343 271.56 322.919 271.56C320.495 271.56 318.935 269.736 318.935 267.384ZM331.999 273H333.871V261.768H331.999V273ZM331.567 257.376C331.567 258.168 332.143 258.744 332.935 258.744C333.727 258.744 334.303 258.168 334.303 257.376C334.303 256.632 333.703 256.008 332.935 256.008C332.167 256.008 331.567 256.632 331.567 257.376ZM337.764 273H339.636V254.856H337.764V273ZM351.978 269.856C351.09 270.984 350.01 271.56 348.402 271.56C346.362 271.56 344.874 269.904 344.73 267.96H353.802V267.36C353.802 263.64 351.642 261.48 348.474 261.48C345.162 261.48 342.714 263.904 342.714 267.384C342.714 270.648 344.874 273.288 348.402 273.288C350.49 273.288 352.074 272.664 353.394 270.96L351.978 269.856ZM344.73 266.376C344.97 264.48 346.338 263.208 348.402 263.208C350.466 263.208 351.714 264.48 351.786 266.376H344.73ZM364.41 264.432C365.298 263.616 366.546 263.208 367.746 263.208C369.498 263.208 370.53 264.048 370.53 265.68V266.016H369.81C367.05 266.016 362.73 266.232 362.73 269.952C362.73 272.136 364.626 273.288 366.906 273.288C368.61 273.288 369.858 272.472 370.602 271.32H370.65C370.65 271.8 370.65 272.496 370.77 273H372.57C372.474 272.424 372.402 271.704 372.402 271.056V266.232C372.402 263.064 371.01 261.48 367.698 261.48C366.066 261.48 364.386 262.032 363.234 263.208L364.41 264.432ZM370.53 267.6V268.32C370.482 270.144 369.378 271.704 367.218 271.704C365.802 271.704 364.746 271.176 364.746 269.76C364.746 268.248 366.282 267.6 368.658 267.6H370.53ZM375.727 278.472H377.599V271.008H377.647C378.343 272.28 379.951 273.288 381.967 273.288C385.111 273.288 387.583 270.744 387.583 267.384C387.583 263.976 385.207 261.48 381.679 261.48C380.047 261.48 378.679 262.2 377.647 263.4H377.599V261.768H375.727V278.472ZM377.599 267.384C377.599 265.032 379.159 263.208 381.583 263.208C384.007 263.208 385.567 265.032 385.567 267.384C385.567 269.736 384.007 271.56 381.583 271.56C379.159 271.56 377.599 269.736 377.599 267.384ZM390.399 278.472H392.271V271.008H392.319C393.015 272.28 394.623 273.288 396.639 273.288C399.783 273.288 402.255 270.744 402.255 267.384C402.255 263.976 399.879 261.48 396.351 261.48C394.719 261.48 393.351 262.2 392.319 263.4H392.271V261.768H390.399V278.472ZM392.271 267.384C392.271 265.032 393.831 263.208 396.255 263.208C398.679 263.208 400.239 265.032 400.239 267.384C400.239 269.736 398.679 271.56 396.255 271.56C393.831 271.56 392.271 269.736 392.271 267.384ZM146.528 300.2C147.632 301.784 149 302.288 150.896 302.288C153.128 302.288 155.384 301.304 155.384 298.76C155.384 296.504 153.704 295.784 151.712 295.4C150.224 295.112 148.88 294.704 148.88 293.768C148.88 292.712 150.056 292.208 151.088 292.208C152.192 292.208 152.984 292.76 153.464 293.552L155.024 292.52C154.256 291.08 152.792 290.48 151.208 290.48C149.12 290.48 147.008 291.608 147.008 293.792C147.008 296.12 148.832 296.576 150.968 297.056C152.168 297.32 153.368 297.632 153.368 298.832C153.368 300.056 152.072 300.56 150.896 300.56C149.576 300.56 148.76 299.96 148.016 299.048L146.528 300.2ZM157.347 296.384C157.347 299.888 159.891 302.288 163.347 302.288C166.803 302.288 169.347 299.888 169.347 296.384C169.347 292.88 166.803 290.48 163.347 290.48C159.891 290.48 157.347 292.88 157.347 296.384ZM159.363 296.384C159.363 294.032 160.923 292.208 163.347 292.208C165.771 292.208 167.331 294.032 167.331 296.384C167.331 298.736 165.771 300.56 163.347 300.56C160.923 300.56 159.363 298.736 159.363 296.384ZM172.413 302H174.285V283.856H172.413V302ZM187.802 290.768H185.93V296.24C185.93 298.808 184.874 300.56 182.45 300.56C180.698 300.56 179.882 299.384 179.882 297.512V290.768H178.01V297.704C178.01 300.416 179.33 302.288 182.282 302.288C184.13 302.288 185.522 301.256 186.026 300.152H186.074C186.074 300.776 186.122 301.4 186.122 302H187.898C187.898 301.256 187.802 300.368 187.802 299.336V290.768ZM197.49 290.768H194.178V287.576H192.306V290.768H189.858V292.352H192.306V298.52C192.306 300.848 192.738 302.288 195.402 302.288C196.098 302.288 196.938 302.168 197.586 301.88L197.514 300.176C197.01 300.44 196.41 300.56 195.858 300.56C194.202 300.56 194.178 299.408 194.178 297.968V292.352H197.49V290.768ZM199.952 302H201.824V290.768H199.952V302ZM199.52 286.376C199.52 287.168 200.096 287.744 200.888 287.744C201.68 287.744 202.256 287.168 202.256 286.376C202.256 285.632 201.656 285.008 200.888 285.008C200.12 285.008 199.52 285.632 199.52 286.376ZM204.901 296.384C204.901 299.888 207.445 302.288 210.901 302.288C214.357 302.288 216.901 299.888 216.901 296.384C216.901 292.88 214.357 290.48 210.901 290.48C207.445 290.48 204.901 292.88 204.901 296.384ZM206.917 296.384C206.917 294.032 208.477 292.208 210.901 292.208C213.325 292.208 214.885 294.032 214.885 296.384C214.885 298.736 213.325 300.56 210.901 300.56C208.477 300.56 206.917 298.736 206.917 296.384ZM219.799 302H221.671V296.528C221.671 293.96 222.727 292.208 225.151 292.208C226.903 292.208 227.719 293.384 227.719 295.256V302H229.591V295.064C229.591 292.352 228.271 290.48 225.319 290.48C223.471 290.48 222.079 291.512 221.575 292.616H221.527C221.527 291.992 221.479 291.368 221.479 290.768H219.703C219.703 291.512 219.799 292.4 219.799 293.432V302ZM240.775 302H242.647V292.352H245.383V290.768H242.647V288.656C242.647 286.712 242.719 285.296 244.663 285.296C245.095 285.296 245.527 285.392 245.935 285.536L246.199 283.856C245.839 283.664 245.239 283.568 244.759 283.568C241.735 283.568 240.775 285.512 240.775 288.248V290.768H238.327V292.352H240.775V302ZM246.737 296.384C246.737 299.888 249.281 302.288 252.737 302.288C256.193 302.288 258.737 299.888 258.737 296.384C258.737 292.88 256.193 290.48 252.737 290.48C249.281 290.48 246.737 292.88 246.737 296.384ZM248.753 296.384C248.753 294.032 250.313 292.208 252.737 292.208C255.161 292.208 256.721 294.032 256.721 296.384C256.721 298.736 255.161 300.56 252.737 300.56C250.313 300.56 248.753 298.736 248.753 296.384ZM261.635 302H263.507V296.528C263.507 293.96 264.515 292.352 266.795 292.352C267.131 292.352 267.491 292.4 267.803 292.496L267.923 290.6C267.659 290.504 267.395 290.48 267.155 290.48C265.307 290.48 263.915 291.512 263.411 292.616H263.363C263.363 291.992 263.315 291.368 263.315 290.768H261.539C261.539 291.512 261.635 292.4 261.635 293.432V302ZM282.897 290.768H279.585V287.576H277.713V290.768H275.265V292.352H277.713V298.52C277.713 300.848 278.145 302.288 280.809 302.288C281.505 302.288 282.345 302.168 282.993 301.88L282.921 300.176C282.417 300.44 281.817 300.56 281.265 300.56C279.609 300.56 279.585 299.408 279.585 297.968V292.352H282.897V290.768ZM285.19 302H287.062V296.528C287.062 293.96 288.07 292.352 290.35 292.352C290.686 292.352 291.046 292.4 291.358 292.496L291.478 290.6C291.214 290.504 290.95 290.48 290.71 290.48C288.862 290.48 287.47 291.512 286.966 292.616H286.918C286.918 291.992 286.87 291.368 286.87 290.768H285.094C285.094 291.512 285.19 292.4 285.19 293.432V302ZM294.66 293.432C295.548 292.616 296.796 292.208 297.996 292.208C299.748 292.208 300.78 293.048 300.78 294.68V295.016H300.06C297.3 295.016 292.98 295.232 292.98 298.952C292.98 301.136 294.876 302.288 297.156 302.288C298.86 302.288 300.108 301.472 300.852 300.32H300.9C300.9 300.8 300.9 301.496 301.02 302H302.82C302.724 301.424 302.652 300.704 302.652 300.056V295.232C302.652 292.064 301.26 290.48 297.948 290.48C296.316 290.48 294.636 291.032 293.484 292.208L294.66 293.432ZM300.78 296.6V297.32C300.732 299.144 299.628 300.704 297.468 300.704C296.052 300.704 294.996 300.176 294.996 298.76C294.996 297.248 296.532 296.6 298.908 296.6H300.78ZM315.625 290.768H313.609L310.273 299.576H310.225L306.721 290.768H304.537L309.121 302H311.185L315.625 290.768ZM326.267 298.856C325.379 299.984 324.299 300.56 322.691 300.56C320.651 300.56 319.163 298.904 319.019 296.96H328.091V296.36C328.091 292.64 325.931 290.48 322.763 290.48C319.451 290.48 317.003 292.904 317.003 296.384C317.003 299.648 319.163 302.288 322.691 302.288C324.779 302.288 326.363 301.664 327.683 299.96L326.267 298.856ZM319.019 295.376C319.259 293.48 320.627 292.208 322.691 292.208C324.755 292.208 326.003 293.48 326.075 295.376H319.019ZM331.155 302H333.027V283.856H331.155V302ZM345.369 298.856C344.481 299.984 343.401 300.56 341.793 300.56C339.753 300.56 338.265 298.904 338.121 296.96H347.193V296.36C347.193 292.64 345.033 290.48 341.865 290.48C338.553 290.48 336.105 292.904 336.105 296.384C336.105 299.648 338.265 302.288 341.793 302.288C343.881 302.288 345.465 301.664 346.785 299.96L345.369 298.856ZM338.121 295.376C338.361 293.48 339.729 292.208 341.793 292.208C343.857 292.208 345.105 293.48 345.177 295.376H338.121ZM350.089 302H351.961V296.528C351.961 293.96 352.969 292.352 355.249 292.352C355.585 292.352 355.945 292.4 356.257 292.496L356.377 290.6C356.113 290.504 355.849 290.48 355.609 290.48C353.761 290.48 352.369 291.512 351.865 292.616H351.817C351.817 291.992 351.769 291.368 351.769 290.768H349.993C349.993 291.512 350.089 292.4 350.089 293.432V302ZM357.278 300.2C358.382 301.784 359.75 302.288 361.646 302.288C363.878 302.288 366.134 301.304 366.134 298.76C366.134 296.504 364.454 295.784 362.462 295.4C360.974 295.112 359.63 294.704 359.63 293.768C359.63 292.712 360.806 292.208 361.838 292.208C362.942 292.208 363.734 292.76 364.214 293.552L365.774 292.52C365.006 291.08 363.542 290.48 361.958 290.48C359.87 290.48 357.758 291.608 357.758 293.792C357.758 296.12 359.582 296.576 361.718 297.056C362.918 297.32 364.118 297.632 364.118 298.832C364.118 300.056 362.822 300.56 361.646 300.56C360.326 300.56 359.51 299.96 358.766 299.048L357.278 300.2ZM375.328 307.472H377.2V300.008H377.248C377.944 301.28 379.552 302.288 381.568 302.288C384.712 302.288 387.184 299.744 387.184 296.384C387.184 292.976 384.808 290.48 381.28 290.48C379.648 290.48 378.28 291.2 377.248 292.4H377.2V290.768H375.328V307.472ZM377.2 296.384C377.2 294.032 378.76 292.208 381.184 292.208C383.608 292.208 385.168 294.032 385.168 296.384C385.168 298.736 383.608 300.56 381.184 300.56C378.76 300.56 377.2 298.736 377.2 296.384ZM389.448 296.384C389.448 299.888 391.992 302.288 395.448 302.288C398.904 302.288 401.448 299.888 401.448 296.384C401.448 292.88 398.904 290.48 395.448 290.48C391.992 290.48 389.448 292.88 389.448 296.384ZM391.464 296.384C391.464 294.032 393.024 292.208 395.448 292.208C397.872 292.208 399.432 294.032 399.432 296.384C399.432 298.736 397.872 300.56 395.448 300.56C393.024 300.56 391.464 298.736 391.464 296.384ZM403.098 300.2C404.202 301.784 405.57 302.288 407.466 302.288C409.698 302.288 411.954 301.304 411.954 298.76C411.954 296.504 410.274 295.784 408.282 295.4C406.794 295.112 405.45 294.704 405.45 293.768C405.45 292.712 406.626 292.208 407.658 292.208C408.762 292.208 409.554 292.76 410.034 293.552L411.594 292.52C410.826 291.08 409.362 290.48 407.778 290.48C405.69 290.48 403.578 291.608 403.578 293.792C403.578 296.12 405.402 296.576 407.538 297.056C408.738 297.32 409.938 297.632 409.938 298.832C409.938 300.056 408.642 300.56 407.466 300.56C406.146 300.56 405.33 299.96 404.586 299.048L403.098 300.2ZM420.709 290.768H417.397V287.576H415.525V290.768H413.077V292.352H415.525V298.52C415.525 300.848 415.957 302.288 418.621 302.288C419.317 302.288 420.157 302.168 420.805 301.88L420.733 300.176C420.229 300.44 419.629 300.56 419.077 300.56C417.421 300.56 417.397 299.408 417.397 297.968V292.352H420.709V290.768ZM147.68 336.472H149.552V329.008H149.6C150.296 330.28 151.904 331.288 153.92 331.288C157.064 331.288 159.536 328.744 159.536 325.384C159.536 321.976 157.16 319.48 153.632 319.48C152 319.48 150.632 320.2 149.6 321.4H149.552V319.768H147.68V336.472ZM149.552 325.384C149.552 323.032 151.112 321.208 153.536 321.208C155.96 321.208 157.52 323.032 157.52 325.384C157.52 327.736 155.96 329.56 153.536 329.56C151.112 329.56 149.552 327.736 149.552 325.384ZM163.48 322.432C164.368 321.616 165.616 321.208 166.816 321.208C168.568 321.208 169.6 322.048 169.6 323.68V324.016H168.88C166.12 324.016 161.8 324.232 161.8 327.952C161.8 330.136 163.696 331.288 165.976 331.288C167.68 331.288 168.928 330.472 169.672 329.32H169.72C169.72 329.8 169.72 330.496 169.84 331H171.64C171.544 330.424 171.472 329.704 171.472 329.056V324.232C171.472 321.064 170.08 319.48 166.768 319.48C165.136 319.48 163.456 320.032 162.304 321.208L163.48 322.432ZM169.6 325.6V326.32C169.552 328.144 168.448 329.704 166.288 329.704C164.872 329.704 163.816 329.176 163.816 327.76C163.816 326.248 165.352 325.6 167.728 325.6H169.6ZM174.893 331H176.765V325.528C176.765 322.96 177.821 321.208 180.245 321.208C181.997 321.208 182.813 322.384 182.813 324.256V331H184.685V324.064C184.685 321.352 183.365 319.48 180.413 319.48C178.565 319.48 177.173 320.512 176.669 321.616H176.621C176.621 320.992 176.573 320.368 176.573 319.768H174.797C174.797 320.512 174.893 321.4 174.893 322.432V331ZM197.565 331H199.437V312.856H197.565V321.4H197.517C196.485 320.2 195.117 319.48 193.485 319.48C189.957 319.48 187.581 321.976 187.581 325.384C187.581 328.744 190.053 331.288 193.197 331.288C195.213 331.288 196.821 330.28 197.517 329.008H197.565V331ZM197.565 325.384C197.565 327.736 196.005 329.56 193.581 329.56C191.157 329.56 189.597 327.736 189.597 325.384C189.597 323.032 191.157 321.208 193.581 321.208C196.005 321.208 197.565 323.032 197.565 325.384ZM211.517 327.856C210.629 328.984 209.549 329.56 207.941 329.56C205.901 329.56 204.413 327.904 204.269 325.96H213.341V325.36C213.341 321.64 211.181 319.48 208.013 319.48C204.701 319.48 202.253 321.904 202.253 325.384C202.253 328.648 204.413 331.288 207.941 331.288C210.029 331.288 211.613 330.664 212.933 328.96L211.517 327.856ZM204.269 324.376C204.509 322.48 205.877 321.208 207.941 321.208C210.005 321.208 211.253 322.48 211.325 324.376H204.269ZM216.237 331H218.109V325.528C218.109 322.96 219.165 321.208 221.589 321.208C223.125 321.208 223.749 322.168 223.749 324.64V331H225.621V324.52C225.621 322.504 226.941 321.208 228.525 321.208C230.709 321.208 231.261 322.72 231.261 324.28V331H233.133V324.184C233.133 321.28 232.077 319.48 228.861 319.48C227.157 319.48 226.125 320.296 225.309 321.616C224.949 320.848 224.181 319.48 221.757 319.48C219.909 319.48 218.517 320.512 218.013 321.616H217.965C217.965 320.992 217.917 320.368 217.917 319.768H216.141C216.141 320.512 216.237 321.4 216.237 322.432V331ZM236.842 331H238.714V319.768H236.842V331ZM236.41 315.376C236.41 316.168 236.986 316.744 237.778 316.744C238.57 316.744 239.146 316.168 239.146 315.376C239.146 314.632 238.546 314.008 237.778 314.008C237.01 314.008 236.41 314.632 236.41 315.376ZM251.92 321.256C250.792 320.032 249.256 319.48 247.6 319.48C244.144 319.48 241.792 321.976 241.792 325.384C241.792 328.84 244.12 331.288 247.6 331.288C249.232 331.288 250.768 330.736 251.848 329.488L250.456 328.168C249.76 329.128 248.824 329.56 247.6 329.56C245.32 329.56 243.808 327.688 243.808 325.384C243.808 323.08 245.08 321.208 247.6 321.208C248.728 321.208 249.64 321.616 250.432 322.576L251.92 321.256Z" fill="white"/>
<rect x="145" y="352" width="218" height="64" rx="15" fill="#A7A28F"/>
<path d="M174.764 392H176.546L182.64 376.424H180.682L175.732 389.228H175.688L170.892 376.424H168.802L174.764 392ZM184.231 392H185.947V381.704H184.231V392ZM183.835 377.678C183.835 378.404 184.363 378.932 185.089 378.932C185.815 378.932 186.343 378.404 186.343 377.678C186.343 376.996 185.793 376.424 185.089 376.424C184.385 376.424 183.835 376.996 183.835 377.678ZM197.26 389.118C196.446 390.152 195.456 390.68 193.982 390.68C192.112 390.68 190.748 389.162 190.616 387.38H198.932V386.83C198.932 383.42 196.952 381.44 194.048 381.44C191.012 381.44 188.768 383.662 188.768 386.852C188.768 389.844 190.748 392.264 193.982 392.264C195.896 392.264 197.348 391.692 198.558 390.13L197.26 389.118ZM190.616 385.928C190.836 384.19 192.09 383.024 193.982 383.024C195.874 383.024 197.018 384.19 197.084 385.928H190.616ZM215.953 381.704H214.105L211.773 389.624H211.729L209.023 381.704H207.219L204.557 389.624H204.513L202.159 381.704H200.267L203.611 392H205.371L207.967 384.08H208.011L210.937 392H212.631L215.953 381.704ZM236.843 378.47C235.523 376.754 233.455 376.028 231.343 376.028C226.723 376.028 223.423 379.636 223.423 384.212C223.423 388.942 226.877 392.396 231.343 392.396C233.829 392.396 235.853 391.538 237.239 389.668L235.853 388.502C234.753 389.91 233.235 390.68 231.343 390.68C227.845 390.68 225.403 387.82 225.403 384.212C225.403 380.802 227.867 377.744 231.343 377.744C232.839 377.744 234.313 378.382 235.237 379.636L236.843 378.47ZM240.453 384.146C241.267 383.398 242.411 383.024 243.511 383.024C245.117 383.024 246.063 383.794 246.063 385.29V385.598H245.403C242.873 385.598 238.913 385.796 238.913 389.206C238.913 391.208 240.651 392.264 242.741 392.264C244.303 392.264 245.447 391.516 246.129 390.46H246.173C246.173 390.9 246.173 391.538 246.283 392H247.933C247.845 391.472 247.779 390.812 247.779 390.218V385.796C247.779 382.892 246.503 381.44 243.467 381.44C241.971 381.44 240.431 381.946 239.375 383.024L240.453 384.146ZM246.063 387.05V387.71C246.019 389.382 245.007 390.812 243.027 390.812C241.729 390.812 240.761 390.328 240.761 389.03C240.761 387.644 242.169 387.05 244.347 387.05H246.063ZM249.771 390.35C250.783 391.802 252.037 392.264 253.775 392.264C255.821 392.264 257.889 391.362 257.889 389.03C257.889 386.962 256.349 386.302 254.523 385.95C253.159 385.686 251.927 385.312 251.927 384.454C251.927 383.486 253.005 383.024 253.951 383.024C254.963 383.024 255.689 383.53 256.129 384.256L257.559 383.31C256.855 381.99 255.513 381.44 254.061 381.44C252.147 381.44 250.211 382.474 250.211 384.476C250.211 386.61 251.883 387.028 253.841 387.468C254.941 387.71 256.041 387.996 256.041 389.096C256.041 390.218 254.853 390.68 253.775 390.68C252.565 390.68 251.817 390.13 251.135 389.294L249.771 390.35ZM268.18 389.118C267.366 390.152 266.376 390.68 264.902 390.68C263.032 390.68 261.668 389.162 261.536 387.38H269.852V386.83C269.852 383.42 267.872 381.44 264.968 381.44C261.932 381.44 259.688 383.662 259.688 386.852C259.688 389.844 261.668 392.264 264.902 392.264C266.816 392.264 268.268 391.692 269.478 390.13L268.18 389.118ZM261.536 385.928C261.756 384.19 263.01 383.024 264.902 383.024C266.794 383.024 267.938 384.19 268.004 385.928H261.536ZM287.848 377.854C286.704 376.512 285.23 376.028 283.492 376.028C280.764 376.028 278.19 377.524 278.19 380.516C278.19 383.112 279.862 384.08 282.062 384.806C284.834 385.73 286.132 386.06 286.132 387.974C286.132 389.756 284.328 390.68 282.744 390.68C281.402 390.68 280.082 390.086 279.422 388.942L277.838 390.24C278.894 391.802 280.83 392.396 282.634 392.396C285.45 392.396 288.112 390.944 288.112 387.842C288.112 384.784 285.868 383.992 283.448 383.222C280.962 382.43 280.17 381.792 280.17 380.362C280.17 378.514 281.864 377.744 283.492 377.744C284.614 377.744 285.714 378.184 286.33 379.174L287.848 377.854ZM296.487 381.704H293.451V378.778H291.735V381.704H289.491V383.156H291.735V388.81C291.735 390.944 292.131 392.264 294.573 392.264C295.211 392.264 295.981 392.154 296.575 391.89L296.509 390.328C296.047 390.57 295.497 390.68 294.991 390.68C293.473 390.68 293.451 389.624 293.451 388.304V383.156H296.487V381.704ZM307.565 381.704H305.849V386.72C305.849 389.074 304.881 390.68 302.659 390.68C301.053 390.68 300.305 389.602 300.305 387.886V381.704H298.589V388.062C298.589 390.548 299.799 392.264 302.505 392.264C304.199 392.264 305.475 391.318 305.937 390.306H305.981C305.981 390.878 306.025 391.45 306.025 392H307.653C307.653 391.318 307.565 390.504 307.565 389.558V381.704ZM319.372 392H321.088V375.368H319.372V383.2H319.328C318.382 382.1 317.128 381.44 315.632 381.44C312.398 381.44 310.22 383.728 310.22 386.852C310.22 389.932 312.486 392.264 315.368 392.264C317.216 392.264 318.69 391.34 319.328 390.174H319.372V392ZM319.372 386.852C319.372 389.008 317.942 390.68 315.72 390.68C313.498 390.68 312.068 389.008 312.068 386.852C312.068 384.696 313.498 383.024 315.72 383.024C317.942 383.024 319.372 384.696 319.372 386.852ZM333.019 381.704H331.149L328.091 389.778H328.047L324.857 381.704H322.855L327.123 392.066L326.419 394.002C326.045 395.014 325.627 395.696 324.505 395.696C324.021 395.696 323.647 395.652 323.295 395.52L323.075 397.016C323.537 397.236 324.131 397.28 324.615 397.28C326.683 397.28 327.365 396.092 328.047 394.354L333.019 381.704Z" fill="white"/>
</g>
<defs>
<filter id="filter0_d" x="0" y="0" width="1179" height="509" filterUnits="userSpaceOnUse" color-interpolation-filters="sRGB">
<feFlood flood-opacity="0" result="BackgroundImageFix"/>
<feColorMatrix in="SourceAlpha" type="matrix" values="0 0 0 0 0 0 0 0 0 0 0 0 0 0 0 0 0 0 127 0" result="hardAlpha"/>
<feOffset dy="4"/>
<feGaussianBlur stdDeviation="10"/>
<feComposite in2="hardAlpha" operator="out"/>
<feColorMatrix type="matrix" values="0 0 0 0 0 0 0 0 0 0 0 0 0 0 0 0 0 0 0.25 0"/>
<feBlend mode="normal" in2="BackgroundImageFix" result="effect1_dropShadow"/>
<feBlend mode="normal" in="SourceGraphic" in2="effect1_dropShadow" result="shape"/>
</filter>
<linearGradient id="paint0_linear" x1="589.5" y1="16" x2="589.5" y2="485" gradientUnits="userSpaceOnUse">
<stop stop-color="#BBA248"/>
<stop offset="1" stop-color="#604011"/>
</linearGradient>
</defs>
</svg>
