<svg width="1179" height="509" viewBox="0 0 1179 509" fill="none" xmlns="http://www.w3.org/2000/svg">
<g filter="url(#filter0_d)">
<rect x="20" y="16" width="1139" height="469" rx="15" fill="url(#paint0_linear)"/>
<path d="M172.376 174H182.36V137.52H195.288V128.688H159.448V137.52H172.376V174ZM193.267 174H202.867V161.008C202.867 154.8 203.763 150.576 211.059 150.576C212.467 150.576 213.811 150.832 215.155 151.216V142.448C214.259 142.192 213.043 142.128 211.955 142.128C207.731 142.128 205.043 144.112 202.995 147.888H202.867V142.896H193.267V174ZM240.925 163.696C239.325 165.872 237.213 167.472 234.077 167.472C230.365 167.472 227.613 165.104 226.845 161.456H249.117V158.448C249.117 148.528 243.485 142.128 234.525 142.128C224.925 142.128 217.245 148.528 217.245 158.448C217.245 168.368 224.925 174.768 234.525 174.768C239.517 174.768 244.573 172.528 247.645 168.624L240.925 163.696ZM226.845 154.928C227.101 151.92 229.405 149.04 233.628 149.04C237.085 149.04 239.581 151.728 239.517 154.928H226.845ZM254.955 174H264.555V158.256H264.683L275.179 174H287.275L274.603 156.912L286.955 142.896H275.179L264.555 155.184V125.616H254.955V174Z" fill="white"/>
<path d="M160.8 225H167.328C170.664 225 175.656 222.768 175.656 216.504C175.656 210.24 170.664 208.008 167.328 208.008H160.8V225ZM162.816 209.88H166.656C170.544 209.88 173.496 211.848 173.496 216.504C173.496 221.16 170.544 223.128 166.656 223.128H162.816V209.88ZM187.181 221.856C186.293 222.984 185.213 223.56 183.605 223.56C181.565 223.56 180.077 221.904 179.933 219.96H189.005V219.36C189.005 215.64 186.845 213.48 183.677 213.48C180.365 213.48 177.917 215.904 177.917 219.384C177.917 222.648 180.077 225.288 183.605 225.288C185.693 225.288 187.277 224.664 188.597 222.96L187.181 221.856ZM179.933 218.376C180.173 216.48 181.541 215.208 183.605 215.208C185.669 215.208 186.917 216.48 186.989 218.376H179.933ZM190.653 223.2C191.757 224.784 193.125 225.288 195.021 225.288C197.253 225.288 199.509 224.304 199.509 221.76C199.509 219.504 197.829 218.784 195.837 218.4C194.349 218.112 193.005 217.704 193.005 216.768C193.005 215.712 194.181 215.208 195.213 215.208C196.317 215.208 197.109 215.76 197.589 216.552L199.149 215.52C198.381 214.08 196.917 213.48 195.333 213.48C193.245 213.48 191.133 214.608 191.133 216.792C191.133 219.12 192.957 219.576 195.093 220.056C196.293 220.32 197.493 220.632 197.493 221.832C197.493 223.056 196.197 223.56 195.021 223.56C193.701 223.56 192.885 222.96 192.141 222.048L190.653 223.2ZM202.288 225H204.16V213.768H202.288V225ZM201.856 209.376C201.856 210.168 202.432 210.744 203.224 210.744C204.016 210.744 204.592 210.168 204.592 209.376C204.592 208.632 203.992 208.008 203.224 208.008C202.456 208.008 201.856 208.632 201.856 209.376ZM219.093 213.768H217.221V215.688H217.173C216.429 214.2 214.725 213.48 213.213 213.48C209.637 213.48 207.237 215.712 207.237 219.384C207.237 222.696 209.685 225.144 213.213 225.144C214.701 225.144 216.285 224.496 217.173 223.056H217.221V224.496C217.221 226.872 216.333 229.032 212.973 229.032C211.245 229.032 209.973 228.36 208.797 227.088L207.453 228.624C209.037 230.184 210.789 230.76 212.973 230.76C216.909 230.76 219.093 228.552 219.093 224.496V213.768ZM209.253 219.384C209.253 217.032 210.861 215.208 213.213 215.208C215.589 215.208 217.221 216.912 217.221 219.336C217.221 221.496 215.781 223.416 213.213 223.416C211.029 223.416 209.253 221.664 209.253 219.384ZM222.557 225H224.429V219.528C224.429 216.96 225.485 215.208 227.909 215.208C229.661 215.208 230.477 216.384 230.477 218.256V225H232.349V218.064C232.349 215.352 231.029 213.48 228.077 213.48C226.229 213.48 224.837 214.512 224.333 215.616H224.285C224.285 214.992 224.237 214.368 224.237 213.768H222.461C222.461 214.512 222.557 215.4 222.557 216.432V225ZM236.061 225H237.933V213.768H236.061V225ZM235.629 209.376C235.629 210.168 236.205 210.744 236.997 210.744C237.789 210.744 238.365 210.168 238.365 209.376C238.365 208.632 237.765 208.008 236.997 208.008C236.229 208.008 235.629 208.632 235.629 209.376ZM241.659 225H243.531V219.528C243.531 216.96 244.587 215.208 247.011 215.208C248.763 215.208 249.579 216.384 249.579 218.256V225H251.451V218.064C251.451 215.352 250.131 213.48 247.179 213.48C245.331 213.48 243.939 214.512 243.435 215.616H243.387C243.387 214.992 243.339 214.368 243.339 213.768H241.563C241.563 214.512 241.659 215.4 241.659 216.432V225ZM266.203 213.768H264.331V215.688H264.283C263.539 214.2 261.835 213.48 260.323 213.48C256.747 213.48 254.347 215.712 254.347 219.384C254.347 222.696 256.795 225.144 260.323 225.144C261.811 225.144 263.395 224.496 264.283 223.056H264.331V224.496C264.331 226.872 263.443 229.032 260.083 229.032C258.355 229.032 257.083 228.36 255.907 227.088L254.563 228.624C256.147 230.184 257.899 230.76 260.083 230.76C264.019 230.76 266.203 228.552 266.203 224.496V213.768ZM256.363 219.384C256.363 217.032 257.971 215.208 260.323 215.208C262.699 215.208 264.331 216.912 264.331 219.336C264.331 221.496 262.891 223.416 260.323 223.416C258.139 223.416 256.363 221.664 256.363 219.384ZM277.378 216.432C278.266 215.616 279.514 215.208 280.714 215.208C282.466 215.208 283.498 216.048 283.498 217.68V218.016H282.778C280.018 218.016 275.698 218.232 275.698 221.952C275.698 224.136 277.594 225.288 279.874 225.288C281.578 225.288 282.826 224.472 283.57 223.32H283.618C283.618 223.8 283.618 224.496 283.738 225H285.538C285.442 224.424 285.37 223.704 285.37 223.056V218.232C285.37 215.064 283.978 213.48 280.666 213.48C279.034 213.48 277.354 214.032 276.202 215.208L277.378 216.432ZM283.498 219.6V220.32C283.45 222.144 282.346 223.704 280.186 223.704C278.77 223.704 277.714 223.176 277.714 221.76C277.714 220.248 279.25 219.6 281.626 219.6H283.498ZM295.471 225H297.343V219.528C297.343 216.96 298.399 215.208 300.823 215.208C302.359 215.208 302.983 216.168 302.983 218.64V225H304.855V218.52C304.855 216.504 306.175 215.208 307.759 215.208C309.943 215.208 310.495 216.72 310.495 218.28V225H312.367V218.184C312.367 215.28 311.311 213.48 308.095 213.48C306.391 213.48 305.359 214.296 304.543 215.616C304.183 214.848 303.415 213.48 300.991 213.48C299.143 213.48 297.751 214.512 297.247 215.616H297.199C297.199 214.992 297.151 214.368 297.151 213.768H295.375C295.375 214.512 295.471 215.4 295.471 216.432V225ZM315.261 219.384C315.261 222.888 317.805 225.288 321.261 225.288C324.717 225.288 327.261 222.888 327.261 219.384C327.261 215.88 324.717 213.48 321.261 213.48C317.805 213.48 315.261 215.88 315.261 219.384ZM317.277 219.384C317.277 217.032 318.837 215.208 321.261 215.208C323.685 215.208 325.245 217.032 325.245 219.384C325.245 221.736 323.685 223.56 321.261 223.56C318.837 223.56 317.277 221.736 317.277 219.384ZM330.063 225H331.935V223.008H331.983C332.679 224.28 334.287 225.288 336.303 225.288C339.447 225.288 341.919 222.744 341.919 219.384C341.919 215.976 339.543 213.48 336.015 213.48C334.383 213.48 333.015 214.2 331.983 215.4H331.935V206.856H330.063V225ZM331.935 219.384C331.935 217.032 333.495 215.208 335.919 215.208C338.343 215.208 339.903 217.032 339.903 219.384C339.903 221.736 338.343 223.56 335.919 223.56C333.495 223.56 331.935 221.736 331.935 219.384ZM344.999 225H346.871V213.768H344.999V225ZM344.567 209.376C344.567 210.168 345.143 210.744 345.935 210.744C346.727 210.744 347.303 210.168 347.303 209.376C347.303 208.632 346.703 208.008 345.935 208.008C345.167 208.008 344.567 208.632 344.567 209.376ZM350.764 225H352.636V206.856H350.764V225ZM364.978 221.856C364.09 222.984 363.01 223.56 361.402 223.56C359.362 223.56 357.874 221.904 357.73 219.96H366.802V219.36C366.802 215.64 364.642 213.48 361.474 213.48C358.162 213.48 355.714 215.904 355.714 219.384C355.714 222.648 357.874 225.288 361.402 225.288C363.49 225.288 365.074 224.664 366.394 222.96L364.978 221.856ZM357.73 218.376C357.97 216.48 359.338 215.208 361.402 215.208C363.466 215.208 364.714 216.48 364.786 218.376H357.73ZM377.41 216.432C378.298 215.616 379.546 215.208 380.746 215.208C382.498 215.208 383.53 216.048 383.53 217.68V218.016H382.81C380.05 218.016 375.73 218.232 375.73 221.952C375.73 224.136 377.626 225.288 379.906 225.288C381.61 225.288 382.858 224.472 383.602 223.32H383.65C383.65 223.8 383.65 224.496 383.77 225H385.57C385.474 224.424 385.402 223.704 385.402 223.056V218.232C385.402 215.064 384.01 213.48 380.698 213.48C379.066 213.48 377.386 214.032 376.234 215.208L377.41 216.432ZM383.53 219.6V220.32C383.482 222.144 382.378 223.704 380.218 223.704C378.802 223.704 377.746 223.176 377.746 221.76C377.746 220.248 379.282 219.6 381.658 219.6H383.53ZM388.727 230.472H390.599V223.008H390.647C391.343 224.28 392.951 225.288 394.967 225.288C398.111 225.288 400.583 222.744 400.583 219.384C400.583 215.976 398.207 213.48 394.679 213.48C393.047 213.48 391.679 214.2 390.647 215.4H390.599V213.768H388.727V230.472ZM390.599 219.384C390.599 217.032 392.159 215.208 394.583 215.208C397.007 215.208 398.567 217.032 398.567 219.384C398.567 221.736 397.007 223.56 394.583 223.56C392.159 223.56 390.599 221.736 390.599 219.384ZM403.399 230.472H405.271V223.008H405.319C406.015 224.28 407.623 225.288 409.639 225.288C412.783 225.288 415.255 222.744 415.255 219.384C415.255 215.976 412.879 213.48 409.351 213.48C407.719 213.48 406.351 214.2 405.319 215.4H405.271V213.768H403.399V230.472ZM405.271 219.384C405.271 217.032 406.831 215.208 409.255 215.208C411.679 215.208 413.239 217.032 413.239 219.384C413.239 221.736 411.679 223.56 409.255 223.56C406.831 223.56 405.271 221.736 405.271 219.384ZM159.528 252.2C160.632 253.784 162 254.288 163.896 254.288C166.128 254.288 168.384 253.304 168.384 250.76C168.384 248.504 166.704 247.784 164.712 247.4C163.224 247.112 161.88 246.704 161.88 245.768C161.88 244.712 163.056 244.208 164.088 244.208C165.192 244.208 165.984 244.76 166.464 245.552L168.024 244.52C167.256 243.08 165.792 242.48 164.208 242.48C162.12 242.48 160.008 243.608 160.008 245.792C160.008 248.12 161.832 248.576 163.968 249.056C165.168 249.32 166.368 249.632 166.368 250.832C166.368 252.056 165.072 252.56 163.896 252.56C162.576 252.56 161.76 251.96 161.016 251.048L159.528 252.2ZM170.347 248.384C170.347 251.888 172.891 254.288 176.347 254.288C179.803 254.288 182.347 251.888 182.347 248.384C182.347 244.88 179.803 242.48 176.347 242.48C172.891 242.48 170.347 244.88 170.347 248.384ZM172.363 248.384C172.363 246.032 173.923 244.208 176.347 244.208C178.771 244.208 180.331 246.032 180.331 248.384C180.331 250.736 178.771 252.56 176.347 252.56C173.923 252.56 172.363 250.736 172.363 248.384ZM185.413 254H187.285V235.856H185.413V254ZM200.802 242.768H198.93V248.24C198.93 250.808 197.874 252.56 195.45 252.56C193.698 252.56 192.882 251.384 192.882 249.512V242.768H191.01V249.704C191.01 252.416 192.33 254.288 195.282 254.288C197.13 254.288 198.522 253.256 199.026 252.152H199.074C199.074 252.776 199.122 253.4 199.122 254H200.898C200.898 253.256 200.802 252.368 200.802 251.336V242.768ZM210.49 242.768H207.178V239.576H205.306V242.768H202.858V244.352H205.306V250.52C205.306 252.848 205.738 254.288 208.402 254.288C209.098 254.288 209.938 254.168 210.586 253.88L210.514 252.176C210.01 252.44 209.41 252.56 208.858 252.56C207.202 252.56 207.178 251.408 207.178 249.968V244.352H210.49V242.768ZM212.952 254H214.824V242.768H212.952V254ZM212.52 238.376C212.52 239.168 213.096 239.744 213.888 239.744C214.68 239.744 215.256 239.168 215.256 238.376C215.256 237.632 214.656 237.008 213.888 237.008C213.12 237.008 212.52 237.632 212.52 238.376ZM217.901 248.384C217.901 251.888 220.445 254.288 223.901 254.288C227.357 254.288 229.901 251.888 229.901 248.384C229.901 244.88 227.357 242.48 223.901 242.48C220.445 242.48 217.901 244.88 217.901 248.384ZM219.917 248.384C219.917 246.032 221.477 244.208 223.901 244.208C226.325 244.208 227.885 246.032 227.885 248.384C227.885 250.736 226.325 252.56 223.901 252.56C221.477 252.56 219.917 250.736 219.917 248.384ZM232.799 254H234.671V248.528C234.671 245.96 235.727 244.208 238.151 244.208C239.903 244.208 240.719 245.384 240.719 247.256V254H242.591V247.064C242.591 244.352 241.271 242.48 238.319 242.48C236.471 242.48 235.079 243.512 234.575 244.616H234.527C234.527 243.992 234.479 243.368 234.479 242.768H232.703C232.703 243.512 232.799 244.4 232.799 245.432V254ZM253.775 254H255.647V244.352H258.383V242.768H255.647V240.656C255.647 238.712 255.719 237.296 257.663 237.296C258.095 237.296 258.527 237.392 258.935 237.536L259.199 235.856C258.839 235.664 258.239 235.568 257.759 235.568C254.735 235.568 253.775 237.512 253.775 240.248V242.768H251.327V244.352H253.775V254ZM259.737 248.384C259.737 251.888 262.281 254.288 265.737 254.288C269.193 254.288 271.737 251.888 271.737 248.384C271.737 244.88 269.193 242.48 265.737 242.48C262.281 242.48 259.737 244.88 259.737 248.384ZM261.753 248.384C261.753 246.032 263.313 244.208 265.737 244.208C268.161 244.208 269.721 246.032 269.721 248.384C269.721 250.736 268.161 252.56 265.737 252.56C263.313 252.56 261.753 250.736 261.753 248.384ZM274.635 254H276.507V248.528C276.507 245.96 277.515 244.352 279.795 244.352C280.131 244.352 280.491 244.4 280.803 244.496L280.923 242.6C280.659 242.504 280.395 242.48 280.155 242.48C278.307 242.48 276.915 243.512 276.411 244.616H276.363C276.363 243.992 276.315 243.368 276.315 242.768H274.539C274.539 243.512 274.635 244.4 274.635 245.432V254ZM295.897 242.768H292.585V239.576H290.713V242.768H288.265V244.352H290.713V250.52C290.713 252.848 291.145 254.288 293.809 254.288C294.505 254.288 295.345 254.168 295.993 253.88L295.921 252.176C295.417 252.44 294.817 252.56 294.265 252.56C292.609 252.56 292.585 251.408 292.585 249.968V244.352H295.897V242.768ZM298.19 254H300.062V248.528C300.062 245.96 301.07 244.352 303.35 244.352C303.686 244.352 304.046 244.4 304.358 244.496L304.478 242.6C304.214 242.504 303.95 242.48 303.71 242.48C301.862 242.48 300.47 243.512 299.966 244.616H299.918C299.918 243.992 299.87 243.368 299.87 242.768H298.094C298.094 243.512 298.19 244.4 298.19 245.432V254ZM307.66 245.432C308.548 244.616 309.796 244.208 310.996 244.208C312.748 244.208 313.78 245.048 313.78 246.68V247.016H313.06C310.3 247.016 305.98 247.232 305.98 250.952C305.98 253.136 307.876 254.288 310.156 254.288C311.86 254.288 313.108 253.472 313.852 252.32H313.9C313.9 252.8 313.9 253.496 314.02 254H315.82C315.724 253.424 315.652 252.704 315.652 252.056V247.232C315.652 244.064 314.26 242.48 310.948 242.48C309.316 242.48 307.636 243.032 306.484 244.208L307.66 245.432ZM313.78 248.6V249.32C313.732 251.144 312.628 252.704 310.468 252.704C309.052 252.704 307.996 252.176 307.996 250.76C307.996 249.248 309.532 248.6 311.908 248.6H313.78ZM328.625 242.768H326.609L323.273 251.576H323.225L319.721 242.768H317.537L322.121 254H324.185L328.625 242.768ZM339.267 250.856C338.379 251.984 337.299 252.56 335.691 252.56C333.651 252.56 332.163 250.904 332.019 248.96H341.091V248.36C341.091 244.64 338.931 242.48 335.763 242.48C332.451 242.48 330.003 244.904 330.003 248.384C330.003 251.648 332.163 254.288 335.691 254.288C337.779 254.288 339.363 253.664 340.683 251.96L339.267 250.856ZM332.019 247.376C332.259 245.48 333.627 244.208 335.691 244.208C337.755 244.208 339.003 245.48 339.075 247.376H332.019ZM344.155 254H346.027V235.856H344.155V254ZM358.369 250.856C357.481 251.984 356.401 252.56 354.793 252.56C352.753 252.56 351.265 250.904 351.121 248.96H360.193V248.36C360.193 244.64 358.033 242.48 354.865 242.48C351.553 242.48 349.105 244.904 349.105 248.384C349.105 251.648 351.265 254.288 354.793 254.288C356.881 254.288 358.465 253.664 359.785 251.96L358.369 250.856ZM351.121 247.376C351.361 245.48 352.729 244.208 354.793 244.208C356.857 244.208 358.105 245.48 358.177 247.376H351.121ZM363.089 254H364.961V248.528C364.961 245.96 365.969 244.352 368.249 244.352C368.585 244.352 368.945 244.4 369.257 244.496L369.377 242.6C369.113 242.504 368.849 242.48 368.609 242.48C366.761 242.48 365.369 243.512 364.865 244.616H364.817C364.817 243.992 364.769 243.368 364.769 242.768H362.993C362.993 243.512 363.089 244.4 363.089 245.432V254ZM370.278 252.2C371.382 253.784 372.75 254.288 374.646 254.288C376.878 254.288 379.134 253.304 379.134 250.76C379.134 248.504 377.454 247.784 375.462 247.4C373.974 247.112 372.63 246.704 372.63 245.768C372.63 244.712 373.806 244.208 374.838 244.208C375.942 244.208 376.734 244.76 377.214 245.552L378.774 244.52C378.006 243.08 376.542 242.48 374.958 242.48C372.87 242.48 370.758 243.608 370.758 245.792C370.758 248.12 372.582 248.576 374.718 249.056C375.918 249.32 377.118 249.632 377.118 250.832C377.118 252.056 375.822 252.56 374.646 252.56C373.326 252.56 372.51 251.96 371.766 251.048L370.278 252.2ZM388.328 259.472H390.2V252.008H390.248C390.944 253.28 392.552 254.288 394.568 254.288C397.712 254.288 400.184 251.744 400.184 248.384C400.184 244.976 397.808 242.48 394.28 242.48C392.648 242.48 391.28 243.2 390.248 244.4H390.2V242.768H388.328V259.472ZM390.2 248.384C390.2 246.032 391.76 244.208 394.184 244.208C396.608 244.208 398.168 246.032 398.168 248.384C398.168 250.736 396.608 252.56 394.184 252.56C391.76 252.56 390.2 250.736 390.2 248.384ZM402.448 248.384C402.448 251.888 404.992 254.288 408.448 254.288C411.904 254.288 414.448 251.888 414.448 248.384C414.448 244.88 411.904 242.48 408.448 242.48C404.992 242.48 402.448 244.88 402.448 248.384ZM404.464 248.384C404.464 246.032 406.024 244.208 408.448 244.208C410.872 244.208 412.432 246.032 412.432 248.384C412.432 250.736 410.872 252.56 408.448 252.56C406.024 252.56 404.464 250.736 404.464 248.384ZM416.098 252.2C417.202 253.784 418.57 254.288 420.466 254.288C422.698 254.288 424.954 253.304 424.954 250.76C424.954 248.504 423.274 247.784 421.282 247.4C419.794 247.112 418.45 246.704 418.45 245.768C418.45 244.712 419.626 244.208 420.658 244.208C421.762 244.208 422.554 244.76 423.034 245.552L424.594 244.52C423.826 243.08 422.362 242.48 420.778 242.48C418.69 242.48 416.578 243.608 416.578 245.792C416.578 248.12 418.402 248.576 420.538 249.056C421.738 249.32 422.938 249.632 422.938 250.832C422.938 252.056 421.642 252.56 420.466 252.56C419.146 252.56 418.33 251.96 417.586 251.048L416.098 252.2ZM433.709 242.768H430.397V239.576H428.525V242.768H426.077V244.352H428.525V250.52C428.525 252.848 428.957 254.288 431.621 254.288C432.317 254.288 433.157 254.168 433.805 253.88L433.733 252.176C433.229 252.44 432.629 252.56 432.077 252.56C430.421 252.56 430.397 251.408 430.397 249.968V244.352H433.709V242.768ZM160.68 288.472H162.552V281.008H162.6C163.296 282.28 164.904 283.288 166.92 283.288C170.064 283.288 172.536 280.744 172.536 277.384C172.536 273.976 170.16 271.48 166.632 271.48C165 271.48 163.632 272.2 162.6 273.4H162.552V271.768H160.68V288.472ZM162.552 277.384C162.552 275.032 164.112 273.208 166.536 273.208C168.96 273.208 170.52 275.032 170.52 277.384C170.52 279.736 168.96 281.56 166.536 281.56C164.112 281.56 162.552 279.736 162.552 277.384ZM176.48 274.432C177.368 273.616 178.616 273.208 179.816 273.208C181.568 273.208 182.6 274.048 182.6 275.68V276.016H181.88C179.12 276.016 174.8 276.232 174.8 279.952C174.8 282.136 176.696 283.288 178.976 283.288C180.68 283.288 181.928 282.472 182.672 281.32H182.72C182.72 281.8 182.72 282.496 182.84 283H184.64C184.544 282.424 184.472 281.704 184.472 281.056V276.232C184.472 273.064 183.08 271.48 179.768 271.48C178.136 271.48 176.456 272.032 175.304 273.208L176.48 274.432ZM182.6 277.6V278.32C182.552 280.144 181.448 281.704 179.288 281.704C177.872 281.704 176.816 281.176 176.816 279.76C176.816 278.248 178.352 277.6 180.728 277.6H182.6ZM187.893 283H189.765V277.528C189.765 274.96 190.821 273.208 193.245 273.208C194.997 273.208 195.813 274.384 195.813 276.256V283H197.685V276.064C197.685 273.352 196.365 271.48 193.413 271.48C191.565 271.48 190.173 272.512 189.669 273.616H189.621C189.621 272.992 189.573 272.368 189.573 271.768H187.797C187.797 272.512 187.893 273.4 187.893 274.432V283ZM210.565 283H212.437V264.856H210.565V273.4H210.517C209.485 272.2 208.117 271.48 206.485 271.48C202.957 271.48 200.581 273.976 200.581 277.384C200.581 280.744 203.053 283.288 206.197 283.288C208.213 283.288 209.821 282.28 210.517 281.008H210.565V283ZM210.565 277.384C210.565 279.736 209.005 281.56 206.581 281.56C204.157 281.56 202.597 279.736 202.597 277.384C202.597 275.032 204.157 273.208 206.581 273.208C209.005 273.208 210.565 275.032 210.565 277.384ZM224.517 279.856C223.629 280.984 222.549 281.56 220.941 281.56C218.901 281.56 217.413 279.904 217.269 277.96H226.341V277.36C226.341 273.64 224.181 271.48 221.013 271.48C217.701 271.48 215.253 273.904 215.253 277.384C215.253 280.648 217.413 283.288 220.941 283.288C223.029 283.288 224.613 282.664 225.933 280.96L224.517 279.856ZM217.269 276.376C217.509 274.48 218.877 273.208 220.941 273.208C223.005 273.208 224.253 274.48 224.325 276.376H217.269ZM229.237 283H231.109V277.528C231.109 274.96 232.165 273.208 234.589 273.208C236.125 273.208 236.749 274.168 236.749 276.64V283H238.621V276.52C238.621 274.504 239.941 273.208 241.525 273.208C243.709 273.208 244.261 274.72 244.261 276.28V283H246.133V276.184C246.133 273.28 245.077 271.48 241.861 271.48C240.157 271.48 239.125 272.296 238.309 273.616C237.949 272.848 237.181 271.48 234.757 271.48C232.909 271.48 231.517 272.512 231.013 273.616H230.965C230.965 272.992 230.917 272.368 230.917 271.768H229.141C229.141 272.512 229.237 273.4 229.237 274.432V283ZM249.842 283H251.714V271.768H249.842V283ZM249.41 267.376C249.41 268.168 249.986 268.744 250.778 268.744C251.57 268.744 252.146 268.168 252.146 267.376C252.146 266.632 251.546 266.008 250.778 266.008C250.01 266.008 249.41 266.632 249.41 267.376ZM264.92 273.256C263.792 272.032 262.256 271.48 260.6 271.48C257.144 271.48 254.792 273.976 254.792 277.384C254.792 280.84 257.12 283.288 260.6 283.288C262.232 283.288 263.768 282.736 264.848 281.488L263.456 280.168C262.76 281.128 261.824 281.56 260.6 281.56C258.32 281.56 256.808 279.688 256.808 277.384C256.808 275.08 258.08 273.208 260.6 273.208C261.728 273.208 262.64 273.616 263.432 274.576L264.92 273.256Z" fill="white"/>
<rect x="159" y="318" width="218" height="64" rx="15" fill="#97A78F"/>
<path d="M188.764 358H190.546L196.64 342.424H194.682L189.732 355.228H189.688L184.892 342.424H182.802L188.764 358ZM198.231 358H199.947V347.704H198.231V358ZM197.835 343.678C197.835 344.404 198.363 344.932 199.089 344.932C199.815 344.932 200.343 344.404 200.343 343.678C200.343 342.996 199.793 342.424 199.089 342.424C198.385 342.424 197.835 342.996 197.835 343.678ZM211.26 355.118C210.446 356.152 209.456 356.68 207.982 356.68C206.112 356.68 204.748 355.162 204.616 353.38H212.932V352.83C212.932 349.42 210.952 347.44 208.048 347.44C205.012 347.44 202.768 349.662 202.768 352.852C202.768 355.844 204.748 358.264 207.982 358.264C209.896 358.264 211.348 357.692 212.558 356.13L211.26 355.118ZM204.616 351.928C204.836 350.19 206.09 349.024 207.982 349.024C209.874 349.024 211.018 350.19 211.084 351.928H204.616ZM229.953 347.704H228.105L225.773 355.624H225.729L223.023 347.704H221.219L218.557 355.624H218.513L216.159 347.704H214.267L217.611 358H219.371L221.967 350.08H222.011L224.937 358H226.631L229.953 347.704ZM250.843 344.47C249.523 342.754 247.455 342.028 245.343 342.028C240.723 342.028 237.423 345.636 237.423 350.212C237.423 354.942 240.877 358.396 245.343 358.396C247.829 358.396 249.853 357.538 251.239 355.668L249.853 354.502C248.753 355.91 247.235 356.68 245.343 356.68C241.845 356.68 239.403 353.82 239.403 350.212C239.403 346.802 241.867 343.744 245.343 343.744C246.839 343.744 248.313 344.382 249.237 345.636L250.843 344.47ZM254.453 350.146C255.267 349.398 256.411 349.024 257.511 349.024C259.117 349.024 260.063 349.794 260.063 351.29V351.598H259.403C256.873 351.598 252.913 351.796 252.913 355.206C252.913 357.208 254.651 358.264 256.741 358.264C258.303 358.264 259.447 357.516 260.129 356.46H260.173C260.173 356.9 260.173 357.538 260.283 358H261.933C261.845 357.472 261.779 356.812 261.779 356.218V351.796C261.779 348.892 260.503 347.44 257.467 347.44C255.971 347.44 254.431 347.946 253.375 349.024L254.453 350.146ZM260.063 353.05V353.71C260.019 355.382 259.007 356.812 257.027 356.812C255.729 356.812 254.761 356.328 254.761 355.03C254.761 353.644 256.169 353.05 258.347 353.05H260.063ZM263.771 356.35C264.783 357.802 266.037 358.264 267.775 358.264C269.821 358.264 271.889 357.362 271.889 355.03C271.889 352.962 270.349 352.302 268.523 351.95C267.159 351.686 265.927 351.312 265.927 350.454C265.927 349.486 267.005 349.024 267.951 349.024C268.963 349.024 269.689 349.53 270.129 350.256L271.559 349.31C270.855 347.99 269.513 347.44 268.061 347.44C266.147 347.44 264.211 348.474 264.211 350.476C264.211 352.61 265.883 353.028 267.841 353.468C268.941 353.71 270.041 353.996 270.041 355.096C270.041 356.218 268.853 356.68 267.775 356.68C266.565 356.68 265.817 356.13 265.135 355.294L263.771 356.35ZM282.18 355.118C281.366 356.152 280.376 356.68 278.902 356.68C277.032 356.68 275.668 355.162 275.536 353.38H283.852V352.83C283.852 349.42 281.872 347.44 278.968 347.44C275.932 347.44 273.688 349.662 273.688 352.852C273.688 355.844 275.668 358.264 278.902 358.264C280.816 358.264 282.268 357.692 283.478 356.13L282.18 355.118ZM275.536 351.928C275.756 350.19 277.01 349.024 278.902 349.024C280.794 349.024 281.938 350.19 282.004 351.928H275.536ZM301.848 343.854C300.704 342.512 299.23 342.028 297.492 342.028C294.764 342.028 292.19 343.524 292.19 346.516C292.19 349.112 293.862 350.08 296.062 350.806C298.834 351.73 300.132 352.06 300.132 353.974C300.132 355.756 298.328 356.68 296.744 356.68C295.402 356.68 294.082 356.086 293.422 354.942L291.838 356.24C292.894 357.802 294.83 358.396 296.634 358.396C299.45 358.396 302.112 356.944 302.112 353.842C302.112 350.784 299.868 349.992 297.448 349.222C294.962 348.43 294.17 347.792 294.17 346.362C294.17 344.514 295.864 343.744 297.492 343.744C298.614 343.744 299.714 344.184 300.33 345.174L301.848 343.854ZM310.487 347.704H307.451V344.778H305.735V347.704H303.491V349.156H305.735V354.81C305.735 356.944 306.131 358.264 308.573 358.264C309.211 358.264 309.981 358.154 310.575 357.89L310.509 356.328C310.047 356.57 309.497 356.68 308.991 356.68C307.473 356.68 307.451 355.624 307.451 354.304V349.156H310.487V347.704ZM321.565 347.704H319.849V352.72C319.849 355.074 318.881 356.68 316.659 356.68C315.053 356.68 314.305 355.602 314.305 353.886V347.704H312.589V354.062C312.589 356.548 313.799 358.264 316.505 358.264C318.199 358.264 319.475 357.318 319.937 356.306H319.981C319.981 356.878 320.025 357.45 320.025 358H321.653C321.653 357.318 321.565 356.504 321.565 355.558V347.704ZM333.372 358H335.088V341.368H333.372V349.2H333.328C332.382 348.1 331.128 347.44 329.632 347.44C326.398 347.44 324.22 349.728 324.22 352.852C324.22 355.932 326.486 358.264 329.368 358.264C331.216 358.264 332.69 357.34 333.328 356.174H333.372V358ZM333.372 352.852C333.372 355.008 331.942 356.68 329.72 356.68C327.498 356.68 326.068 355.008 326.068 352.852C326.068 350.696 327.498 349.024 329.72 349.024C331.942 349.024 333.372 350.696 333.372 352.852ZM347.019 347.704H345.149L342.091 355.778H342.047L338.857 347.704H336.855L341.123 358.066L340.419 360.002C340.045 361.014 339.627 361.696 338.505 361.696C338.021 361.696 337.647 361.652 337.295 361.52L337.075 363.016C337.537 363.236 338.131 363.28 338.615 363.28C340.683 363.28 341.365 362.092 342.047 360.354L347.019 347.704Z" fill="white"/>
</g>
<defs>
<filter id="filter0_d" x="0" y="0" width="1179" height="509" filterUnits="userSpaceOnUse" color-interpolation-filters="sRGB">
<feFlood flood-opacity="0" result="BackgroundImageFix"/>
<feColorMatrix in="SourceAlpha" type="matrix" values="0 0 0 0 0 0 0 0 0 0 0 0 0 0 0 0 0 0 127 0" result="hardAlpha"/>
<feOffset dy="4"/>
<feGaussianBlur stdDeviation="10"/>
<feComposite in2="hardAlpha" operator="out"/>
<feColorMatrix type="matrix" values="0 0 0 0 0 0 0 0 0 0 0 0 0 0 0 0 0 0 0.25 0"/>
<feBlend mode="normal" in2="BackgroundImageFix" result="effect1_dropShadow"/>
<feBlend mode="normal" in="SourceGraphic" in2="effect1_dropShadow" result="shape"/>
</filter>
<linearGradient id="paint0_linear" x1="589.5" y1="16" x2="589.5" y2="485" gradientUnits="userSpaceOnUse">
<stop stop-color="#88BB48"/>
<stop offset="1" stop-color="#3D6011"/>
</linearGradient>
</defs>
</svg>
