<svg width="1804" height="763" viewBox="0 0 1804 763" fill="none" xmlns="http://www.w3.org/2000/svg">
<g filter="url(#filter0_i)">
<path d="M1804 574.228V5.23096H0.723633V574.228C109.606 644.951 365.406 762.287 517.544 665.847C669.681 569.406 824.056 606.375 882.226 636.914C958.295 673.883 1167.26 750.714 1394.57 762.287C1621.88 773.86 1762.24 641.737 1804 574.228Z" fill="url(#paint0_linear)"/>
<path d="M903.481 511.927C862.211 549.603 801.733 610.707 777.675 606.936L752.579 604.207L724.07 603.733L702.826 604.445L680.592 606.698L654.065 610.731L626.106 617.255C644.598 606.698 861.334 481.675 873.394 468.507C901.065 443.945 984.852 398.542 1098.63 413.435C1212.4 428.327 1283.76 413.999 1305.22 404.973C1358.38 363.584 1464.9 333.316 1511.51 323.356C1546.45 317.537 1630.57 315.146 1687.53 352.125C1744.49 389.104 1788.9 392.482 1803.98 389.549L1803.98 407.971C1795.26 409.596 1781.63 409.679 1775.91 409.518C1753.78 411.8 1680.08 387.969 1645.99 375.769C1610.16 366.211 1517.32 366.069 1432.64 441.962C1326.78 536.828 1265.45 532.38 1159.23 543.114C1074.25 551.701 970.301 646.794 949.167 665.651L911.632 650.349L893.03 642.046L875.529 633.387C875.529 623.264 942.827 562.213 975.595 550.222C1001.81 540.629 1011.61 527.496 1013.23 522.129C1018.66 514.425 1021.52 496.803 989.603 487.945C957.688 479.087 918.891 500.242 903.481 511.927Z" fill="#C4C4C4" fill-opacity="0.13"/>
<path d="M198.065 125.496C106.142 110.684 28.0012 127.132 0.421086 137.208L0.261337 175.312C17.9051 166.325 67.8257 153.265 126.358 172.919C184.891 192.574 269.646 204.816 304.708 208.48C397.283 212.153 609.973 201.435 720.138 129.175C830.303 56.9146 1003.1 15.4415 1075.69 5.23291L0.848168 5.23291C64.3765 47.8553 164.047 45.3026 205.873 39.8191C242.998 35.8833 336.241 32.8167 412.219 52.0357C507.192 76.0595 474.67 112.706 431.107 134.105C387.543 155.505 312.969 144.011 198.065 125.496Z" fill="#C4C4C4" fill-opacity="0.13"/>
</g>
<path d="M1018.18 412.425C1066.83 390.046 1090.43 360.162 1037.77 356.082C971.949 350.981 556.759 316.227 398.916 428.319C272.642 517.994 80.8089 519.694 0.676758 509.335V487.747C64.1147 493.638 201.756 496.951 244.816 463.074C298.641 420.728 495.779 254.427 726.709 267.475C804.037 266.92 911.492 269.29 1001.12 277.682C1006.55 278.19 1011.91 278.721 1017.2 279.274C1114.25 276.817 1435.08 120.051 1499.74 95.0067C1554.87 73.6557 1538.34 116.872 1523.19 141.149C1516.76 160.127 1529.83 159.178 1537.17 156.332C1573.53 160.981 1802.18 75.1977 1803.98 22.8877V52.8978L1803.32 53.7281C1774.04 93.1089 1707.23 121.3 1687.85 131.541C1606.66 175.468 1450.14 245.745 1473.66 175.429C1497.17 105.113 1272.41 259.844 1157.09 346C1078.28 411.856 1163.8 418.356 1168.32 419.424L1154.67 418.831L1140.91 417.882L1127.37 416.696L1113.83 415.272L1086.42 412.07L1072.99 411.002L1059.24 410.527L1045.81 410.646L1031.72 411.239L1024.89 411.714L1018.18 412.425Z" fill="#C4C4C4" fill-opacity="0.12"/>
<defs>
<filter id="filter0_i" x="0.261719" y="-244.769" width="1803.74" height="1007.77" filterUnits="userSpaceOnUse" color-interpolation-filters="sRGB">
<feFlood flood-opacity="0" result="BackgroundImageFix"/>
<feBlend mode="normal" in="SourceGraphic" in2="BackgroundImageFix" result="shape"/>
<feColorMatrix in="SourceAlpha" type="matrix" values="0 0 0 0 0 0 0 0 0 0 0 0 0 0 0 0 0 0 127 0" result="hardAlpha"/>
<feOffset dy="-400"/>
<feGaussianBlur stdDeviation="125"/>
<feComposite in2="hardAlpha" operator="arithmetic" k2="-1" k3="1"/>
<feColorMatrix type="matrix" values="0 0 0 0 0 0 0 0 0 0 0 0 0 0 0 0 0 0 0.2 0"/>
<feBlend mode="normal" in2="shape" result="effect1_innerShadow"/>
</filter>
<linearGradient id="paint0_linear" x1="16.1401" y1="555.317" x2="1734.74" y2="127.804" gradientUnits="userSpaceOnUse">
<stop stop-color="#00A9FF"/>
<stop offset="0.515625" stop-color="#005796"/>
<stop offset="0.848958" stop-color="#3A48C2"/>
</linearGradient>
</defs>
</svg>
