<svg width="1179" height="509" viewBox="0 0 1179 509" fill="none" xmlns="http://www.w3.org/2000/svg">
<g filter="url(#filter0_d)">
<rect x="20" y="16" width="1139" height="469" rx="15" fill="url(#paint0_linear)"/>
<path d="M892.629 103.688H882.645V131.144C882.645 136.712 878.805 140.936 873.557 140.936C868.245 140.936 864.405 136.712 864.405 131.144V103.688H854.421V131.528C854.421 142.216 860.949 150.152 873.557 150.152C886.101 150.152 892.629 142.216 892.629 131.528V103.688ZM931.106 107.272C927.266 103.88 922.338 102.536 917.218 102.536C908.322 102.536 899.938 107.592 899.938 117.256C899.938 132.36 921.186 127.88 921.186 136.2C921.186 139.4 917.538 140.936 914.274 140.936C910.946 140.936 907.618 139.336 905.57 136.648L898.466 144.456C902.754 148.424 907.874 150.152 913.698 150.152C923.042 150.152 931.17 145.352 931.17 135.24C931.17 119.368 910.306 124.68 910.306 116.424C910.306 113.032 914.21 111.752 917.026 111.752C919.458 111.752 922.658 112.712 924.258 114.76L931.106 107.272ZM938.608 149H954.928C968.432 149 980.4 141.128 980.4 126.472C980.4 109.896 968.176 103.688 953.584 103.688H938.608V149ZM948.592 112.904H954.48C962.928 112.904 970.032 117.064 970.032 125.96C970.032 136.264 963.056 139.784 953.776 139.784H948.592V112.904ZM982.498 149H993.507L997.283 139.4H1014.88L1018.79 149H1030.05L1010.34 103.688H1002.08L982.498 149ZM1011.49 130.952H1000.42L1005.92 116.872L1011.49 130.952ZM755.983 226H765.967V207.888H770.895L780.367 226H792.335L780.815 206.864C787.215 205.712 790.607 200.784 790.607 194.448C790.607 183.888 782.799 180.688 773.519 180.688H755.983V226ZM765.967 189.136H772.495C776.143 189.136 780.239 189.84 780.239 194.384C780.239 199.312 775.503 199.44 771.855 199.44H765.967V189.136ZM818.987 215.696C817.387 217.872 815.275 219.472 812.139 219.472C808.427 219.472 805.675 217.104 804.907 213.456H827.179V210.448C827.179 200.528 821.547 194.128 812.587 194.128C802.987 194.128 795.307 200.528 795.307 210.448C795.307 220.368 802.987 226.768 812.587 226.768C817.579 226.768 822.635 224.528 825.707 220.624L818.987 215.696ZM804.907 206.928C805.163 203.92 807.467 201.04 811.691 201.04C815.147 201.04 817.643 203.728 817.579 206.928H804.907ZM865.657 177.616H856.057V198.224H855.929C853.753 195.216 850.041 194.128 846.073 194.128C837.241 194.128 831.865 202.064 831.865 210.704C831.865 220.112 837.945 226.768 847.161 226.768C851.513 226.768 855.225 224.144 856.697 221.904H856.825V226H865.657V177.616ZM856.825 210.448C856.825 215.12 853.945 218.32 849.145 218.32C844.345 218.32 841.465 215.12 841.465 210.448C841.465 205.776 844.345 202.576 849.145 202.576C853.945 202.576 856.825 205.776 856.825 210.448ZM896.05 215.696C894.45 217.872 892.338 219.472 889.202 219.472C885.49 219.472 882.738 217.104 881.97 213.456H904.242V210.448C904.242 200.528 898.61 194.128 889.65 194.128C880.05 194.128 872.37 200.528 872.37 210.448C872.37 220.368 880.05 226.768 889.65 226.768C894.642 226.768 899.698 224.528 902.77 220.624L896.05 215.696ZM881.97 206.928C882.226 203.92 884.53 201.04 888.753 201.04C892.21 201.04 894.706 203.728 894.642 206.928H881.97ZM933.568 198.224C930.688 195.152 926.144 194.128 922.048 194.128C915.52 194.128 908.992 197.328 908.992 204.624C908.992 216.464 925.184 212.24 925.184 217.232C925.184 218.896 923.008 219.472 920.832 219.472C917.952 219.472 915.84 218.256 914.048 216.08L908.224 222.544C911.296 225.68 916.095 226.768 920.448 226.768C927.104 226.768 934.784 224.464 934.784 216.528C934.784 204.688 918.592 208.592 918.592 203.984C918.592 202.128 920.512 201.424 922.112 201.424C924.416 201.424 926.272 202.32 927.68 204.048L933.568 198.224ZM939.833 226H949.433V194.896H939.833V226ZM939.065 185.104C939.065 188.176 941.561 190.672 944.633 190.672C947.705 190.672 950.201 188.176 950.201 185.104C950.201 182.032 947.705 179.536 944.633 179.536C941.561 179.536 939.065 182.032 939.065 185.104ZM988.97 194.896H980.138V198.992H980.01C978.538 196.752 974.826 194.128 969.385 194.128C960.554 194.128 955.178 202.064 955.178 210.32C955.178 219.728 961.258 226.384 970.474 226.384C973.354 226.384 977.066 225.296 979.242 222.288H979.37V225.296C979.37 229.712 976.618 232.912 970.794 232.912C966.89 232.912 963.626 231.376 960.682 228.88L955.37 236.816C959.85 240.4 965.482 241.36 970.986 241.36C983.018 241.36 988.97 235.088 988.97 223.376V194.896ZM964.778 210.256C964.778 206.224 968.106 202.576 972.458 202.576C976.81 202.576 980.138 206.224 980.138 210.256C980.138 214.288 976.81 217.936 972.458 217.936C968.106 217.936 964.778 214.288 964.778 210.256ZM996.642 226H1006.24V210.512C1006.24 206.48 1007.01 202.576 1012 202.576C1016.93 202.576 1016.99 207.184 1016.99 210.768V226H1026.59V208.848C1026.59 200.528 1024.8 194.128 1015.07 194.128C1010.4 194.128 1007.27 196.688 1005.99 199.12H1005.86V194.896H996.642V226Z" fill="white"/>
<path d="M767.409 269H773.937C777.273 269 782.265 266.768 782.265 260.504C782.265 254.24 777.273 252.008 773.937 252.008H767.409V269ZM769.425 253.88H773.265C777.153 253.88 780.105 255.848 780.105 260.504C780.105 265.16 777.153 267.128 773.265 267.128H769.425V253.88ZM793.79 265.856C792.902 266.984 791.822 267.56 790.214 267.56C788.174 267.56 786.686 265.904 786.542 263.96H795.614V263.36C795.614 259.64 793.454 257.48 790.286 257.48C786.974 257.48 784.526 259.904 784.526 263.384C784.526 266.648 786.686 269.288 790.214 269.288C792.302 269.288 793.886 268.664 795.206 266.96L793.79 265.856ZM786.542 262.376C786.782 260.48 788.15 259.208 790.214 259.208C792.278 259.208 793.526 260.48 793.598 262.376H786.542ZM797.262 267.2C798.366 268.784 799.734 269.288 801.63 269.288C803.862 269.288 806.118 268.304 806.118 265.76C806.118 263.504 804.438 262.784 802.446 262.4C800.958 262.112 799.614 261.704 799.614 260.768C799.614 259.712 800.79 259.208 801.822 259.208C802.926 259.208 803.718 259.76 804.198 260.552L805.758 259.52C804.99 258.08 803.526 257.48 801.942 257.48C799.854 257.48 797.742 258.608 797.742 260.792C797.742 263.12 799.566 263.576 801.702 264.056C802.902 264.32 804.102 264.632 804.102 265.832C804.102 267.056 802.806 267.56 801.63 267.56C800.31 267.56 799.494 266.96 798.75 266.048L797.262 267.2ZM808.897 269H810.769V257.768H808.897V269ZM808.465 253.376C808.465 254.168 809.041 254.744 809.833 254.744C810.625 254.744 811.201 254.168 811.201 253.376C811.201 252.632 810.601 252.008 809.833 252.008C809.065 252.008 808.465 252.632 808.465 253.376ZM825.703 257.768H823.831V259.688H823.783C823.039 258.2 821.335 257.48 819.823 257.48C816.247 257.48 813.847 259.712 813.847 263.384C813.847 266.696 816.295 269.144 819.823 269.144C821.311 269.144 822.895 268.496 823.783 267.056H823.831V268.496C823.831 270.872 822.943 273.032 819.583 273.032C817.855 273.032 816.583 272.36 815.407 271.088L814.063 272.624C815.647 274.184 817.399 274.76 819.583 274.76C823.519 274.76 825.703 272.552 825.703 268.496V257.768ZM815.863 263.384C815.863 261.032 817.471 259.208 819.823 259.208C822.199 259.208 823.831 260.912 823.831 263.336C823.831 265.496 822.391 267.416 819.823 267.416C817.639 267.416 815.863 265.664 815.863 263.384ZM829.167 269H831.039V263.528C831.039 260.96 832.095 259.208 834.519 259.208C836.271 259.208 837.087 260.384 837.087 262.256V269H838.959V262.064C838.959 259.352 837.639 257.48 834.687 257.48C832.839 257.48 831.447 258.512 830.943 259.616H830.895C830.895 258.992 830.847 258.368 830.847 257.768H829.071C829.071 258.512 829.167 259.4 829.167 260.432V269ZM842.671 269H844.543V257.768H842.671V269ZM842.239 253.376C842.239 254.168 842.815 254.744 843.607 254.744C844.399 254.744 844.975 254.168 844.975 253.376C844.975 252.632 844.375 252.008 843.607 252.008C842.839 252.008 842.239 252.632 842.239 253.376ZM848.268 269H850.14V263.528C850.14 260.96 851.196 259.208 853.62 259.208C855.372 259.208 856.188 260.384 856.188 262.256V269H858.06V262.064C858.06 259.352 856.74 257.48 853.788 257.48C851.94 257.48 850.548 258.512 850.044 259.616H849.996C849.996 258.992 849.948 258.368 849.948 257.768H848.172C848.172 258.512 848.268 259.4 848.268 260.432V269ZM872.812 257.768H870.94V259.688H870.892C870.148 258.2 868.444 257.48 866.932 257.48C863.356 257.48 860.956 259.712 860.956 263.384C860.956 266.696 863.404 269.144 866.932 269.144C868.42 269.144 870.004 268.496 870.892 267.056H870.94V268.496C870.94 270.872 870.052 273.032 866.692 273.032C864.964 273.032 863.692 272.36 862.516 271.088L861.172 272.624C862.756 274.184 864.508 274.76 866.692 274.76C870.628 274.76 872.812 272.552 872.812 268.496V257.768ZM862.972 263.384C862.972 261.032 864.58 259.208 866.932 259.208C869.308 259.208 870.94 260.912 870.94 263.336C870.94 265.496 869.5 267.416 866.932 267.416C864.748 267.416 862.972 265.664 862.972 263.384ZM883.988 260.432C884.876 259.616 886.124 259.208 887.324 259.208C889.076 259.208 890.108 260.048 890.108 261.68V262.016H889.388C886.628 262.016 882.308 262.232 882.308 265.952C882.308 268.136 884.204 269.288 886.484 269.288C888.188 269.288 889.436 268.472 890.18 267.32H890.228C890.228 267.8 890.228 268.496 890.348 269H892.148C892.052 268.424 891.98 267.704 891.98 267.056V262.232C891.98 259.064 890.588 257.48 887.276 257.48C885.644 257.48 883.964 258.032 882.812 259.208L883.988 260.432ZM890.108 263.6V264.32C890.06 266.144 888.956 267.704 886.796 267.704C885.38 267.704 884.324 267.176 884.324 265.76C884.324 264.248 885.86 263.6 888.236 263.6H890.108ZM902.081 269H903.953V263.528C903.953 260.96 905.009 259.208 907.433 259.208C908.969 259.208 909.593 260.168 909.593 262.64V269H911.465V262.52C911.465 260.504 912.785 259.208 914.369 259.208C916.553 259.208 917.105 260.72 917.105 262.28V269H918.977V262.184C918.977 259.28 917.921 257.48 914.705 257.48C913.001 257.48 911.969 258.296 911.153 259.616C910.793 258.848 910.025 257.48 907.601 257.48C905.753 257.48 904.361 258.512 903.857 259.616H903.809C903.809 258.992 903.761 258.368 903.761 257.768H901.985C901.985 258.512 902.081 259.4 902.081 260.432V269ZM921.87 263.384C921.87 266.888 924.414 269.288 927.87 269.288C931.326 269.288 933.87 266.888 933.87 263.384C933.87 259.88 931.326 257.48 927.87 257.48C924.414 257.48 921.87 259.88 921.87 263.384ZM923.886 263.384C923.886 261.032 925.446 259.208 927.87 259.208C930.294 259.208 931.854 261.032 931.854 263.384C931.854 265.736 930.294 267.56 927.87 267.56C925.446 267.56 923.886 265.736 923.886 263.384ZM936.672 269H938.544V267.008H938.592C939.288 268.28 940.896 269.288 942.912 269.288C946.056 269.288 948.528 266.744 948.528 263.384C948.528 259.976 946.152 257.48 942.624 257.48C940.992 257.48 939.624 258.2 938.592 259.4H938.544V250.856H936.672V269ZM938.544 263.384C938.544 261.032 940.104 259.208 942.528 259.208C944.952 259.208 946.512 261.032 946.512 263.384C946.512 265.736 944.952 267.56 942.528 267.56C940.104 267.56 938.544 265.736 938.544 263.384ZM951.608 269H953.48V257.768H951.608V269ZM951.176 253.376C951.176 254.168 951.752 254.744 952.544 254.744C953.336 254.744 953.912 254.168 953.912 253.376C953.912 252.632 953.312 252.008 952.544 252.008C951.776 252.008 951.176 252.632 951.176 253.376ZM957.374 269H959.246V250.856H957.374V269ZM971.587 265.856C970.699 266.984 969.619 267.56 968.011 267.56C965.971 267.56 964.483 265.904 964.339 263.96H973.411V263.36C973.411 259.64 971.251 257.48 968.083 257.48C964.771 257.48 962.323 259.904 962.323 263.384C962.323 266.648 964.483 269.288 968.011 269.288C970.099 269.288 971.683 268.664 973.003 266.96L971.587 265.856ZM964.339 262.376C964.579 260.48 965.947 259.208 968.011 259.208C970.075 259.208 971.323 260.48 971.395 262.376H964.339ZM984.019 260.432C984.907 259.616 986.155 259.208 987.355 259.208C989.107 259.208 990.139 260.048 990.139 261.68V262.016H989.419C986.659 262.016 982.339 262.232 982.339 265.952C982.339 268.136 984.235 269.288 986.515 269.288C988.219 269.288 989.467 268.472 990.211 267.32H990.259C990.259 267.8 990.259 268.496 990.379 269H992.179C992.083 268.424 992.011 267.704 992.011 267.056V262.232C992.011 259.064 990.619 257.48 987.307 257.48C985.675 257.48 983.995 258.032 982.843 259.208L984.019 260.432ZM990.139 263.6V264.32C990.091 266.144 988.987 267.704 986.827 267.704C985.411 267.704 984.355 267.176 984.355 265.76C984.355 264.248 985.891 263.6 988.267 263.6H990.139ZM995.336 274.472H997.208V267.008H997.256C997.952 268.28 999.56 269.288 1001.58 269.288C1004.72 269.288 1007.19 266.744 1007.19 263.384C1007.19 259.976 1004.82 257.48 1001.29 257.48C999.656 257.48 998.288 258.2 997.256 259.4H997.208V257.768H995.336V274.472ZM997.208 263.384C997.208 261.032 998.768 259.208 1001.19 259.208C1003.62 259.208 1005.18 261.032 1005.18 263.384C1005.18 265.736 1003.62 267.56 1001.19 267.56C998.768 267.56 997.208 265.736 997.208 263.384ZM1010.01 274.472H1011.88V267.008H1011.93C1012.62 268.28 1014.23 269.288 1016.25 269.288C1019.39 269.288 1021.86 266.744 1021.86 263.384C1021.86 259.976 1019.49 257.48 1015.96 257.48C1014.33 257.48 1012.96 258.2 1011.93 259.4H1011.88V257.768H1010.01V274.472ZM1011.88 263.384C1011.88 261.032 1013.44 259.208 1015.86 259.208C1018.29 259.208 1019.85 261.032 1019.85 263.384C1019.85 265.736 1018.29 267.56 1015.86 267.56C1013.44 267.56 1011.88 265.736 1011.88 263.384ZM748.301 296.2C749.405 297.784 750.773 298.288 752.669 298.288C754.901 298.288 757.157 297.304 757.157 294.76C757.157 292.504 755.477 291.784 753.485 291.4C751.997 291.112 750.653 290.704 750.653 289.768C750.653 288.712 751.829 288.208 752.861 288.208C753.965 288.208 754.757 288.76 755.237 289.552L756.797 288.52C756.029 287.08 754.565 286.48 752.981 286.48C750.893 286.48 748.781 287.608 748.781 289.792C748.781 292.12 750.605 292.576 752.741 293.056C753.941 293.32 755.141 293.632 755.141 294.832C755.141 296.056 753.845 296.56 752.669 296.56C751.349 296.56 750.533 295.96 749.789 295.048L748.301 296.2ZM759.12 292.384C759.12 295.888 761.664 298.288 765.12 298.288C768.576 298.288 771.12 295.888 771.12 292.384C771.12 288.88 768.576 286.48 765.12 286.48C761.664 286.48 759.12 288.88 759.12 292.384ZM761.136 292.384C761.136 290.032 762.696 288.208 765.12 288.208C767.544 288.208 769.104 290.032 769.104 292.384C769.104 294.736 767.544 296.56 765.12 296.56C762.696 296.56 761.136 294.736 761.136 292.384ZM774.186 298H776.058V279.856H774.186V298ZM789.576 286.768H787.704V292.24C787.704 294.808 786.648 296.56 784.224 296.56C782.472 296.56 781.656 295.384 781.656 293.512V286.768H779.784V293.704C779.784 296.416 781.104 298.288 784.056 298.288C785.904 298.288 787.296 297.256 787.8 296.152H787.848C787.848 296.776 787.896 297.4 787.896 298H789.672C789.672 297.256 789.576 296.368 789.576 295.336V286.768ZM799.264 286.768H795.952V283.576H794.08V286.768H791.632V288.352H794.08V294.52C794.08 296.848 794.512 298.288 797.176 298.288C797.872 298.288 798.712 298.168 799.36 297.88L799.288 296.176C798.784 296.44 798.184 296.56 797.632 296.56C795.976 296.56 795.952 295.408 795.952 293.968V288.352H799.264V286.768ZM801.725 298H803.597V286.768H801.725V298ZM801.293 282.376C801.293 283.168 801.869 283.744 802.661 283.744C803.453 283.744 804.029 283.168 804.029 282.376C804.029 281.632 803.429 281.008 802.661 281.008C801.893 281.008 801.293 281.632 801.293 282.376ZM806.675 292.384C806.675 295.888 809.219 298.288 812.675 298.288C816.131 298.288 818.675 295.888 818.675 292.384C818.675 288.88 816.131 286.48 812.675 286.48C809.219 286.48 806.675 288.88 806.675 292.384ZM808.691 292.384C808.691 290.032 810.251 288.208 812.675 288.208C815.099 288.208 816.659 290.032 816.659 292.384C816.659 294.736 815.099 296.56 812.675 296.56C810.251 296.56 808.691 294.736 808.691 292.384ZM821.573 298H823.445V292.528C823.445 289.96 824.501 288.208 826.925 288.208C828.677 288.208 829.493 289.384 829.493 291.256V298H831.365V291.064C831.365 288.352 830.045 286.48 827.093 286.48C825.245 286.48 823.853 287.512 823.349 288.616H823.301C823.301 287.992 823.253 287.368 823.253 286.768H821.477C821.477 287.512 821.573 288.4 821.573 289.432V298ZM842.549 298H844.421V288.352H847.157V286.768H844.421V284.656C844.421 282.712 844.493 281.296 846.437 281.296C846.868 281.296 847.301 281.392 847.709 281.536L847.973 279.856C847.613 279.664 847.013 279.568 846.533 279.568C843.509 279.568 842.549 281.512 842.549 284.248V286.768H840.101V288.352H842.549V298ZM848.511 292.384C848.511 295.888 851.055 298.288 854.511 298.288C857.967 298.288 860.511 295.888 860.511 292.384C860.511 288.88 857.967 286.48 854.511 286.48C851.055 286.48 848.511 288.88 848.511 292.384ZM850.527 292.384C850.527 290.032 852.087 288.208 854.511 288.208C856.935 288.208 858.495 290.032 858.495 292.384C858.495 294.736 856.935 296.56 854.511 296.56C852.087 296.56 850.527 294.736 850.527 292.384ZM863.409 298H865.281V292.528C865.281 289.96 866.289 288.352 868.569 288.352C868.905 288.352 869.265 288.4 869.577 288.496L869.697 286.6C869.433 286.504 869.169 286.48 868.929 286.48C867.081 286.48 865.689 287.512 865.185 288.616H865.137C865.137 287.992 865.089 287.368 865.089 286.768H863.313C863.313 287.512 863.409 288.4 863.409 289.432V298ZM884.67 286.768H881.358V283.576H879.486V286.768H877.038V288.352H879.486V294.52C879.486 296.848 879.918 298.288 882.582 298.288C883.278 298.288 884.118 298.168 884.766 297.88L884.694 296.176C884.19 296.44 883.59 296.56 883.038 296.56C881.382 296.56 881.358 295.408 881.358 293.968V288.352H884.67V286.768ZM886.964 298H888.836V292.528C888.836 289.96 889.844 288.352 892.124 288.352C892.46 288.352 892.82 288.4 893.132 288.496L893.252 286.6C892.988 286.504 892.724 286.48 892.484 286.48C890.636 286.48 889.244 287.512 888.74 288.616H888.692C888.692 287.992 888.644 287.368 888.644 286.768H886.868C886.868 287.512 886.964 288.4 886.964 289.432V298ZM896.433 289.432C897.321 288.616 898.569 288.208 899.769 288.208C901.521 288.208 902.553 289.048 902.553 290.68V291.016H901.833C899.073 291.016 894.753 291.232 894.753 294.952C894.753 297.136 896.649 298.288 898.929 298.288C900.633 298.288 901.881 297.472 902.625 296.32H902.673C902.673 296.8 902.673 297.496 902.793 298H904.593C904.497 297.424 904.425 296.704 904.425 296.056V291.232C904.425 288.064 903.033 286.48 899.721 286.48C898.089 286.48 896.409 287.032 895.257 288.208L896.433 289.432ZM902.553 292.6V293.32C902.505 295.144 901.401 296.704 899.241 296.704C897.825 296.704 896.769 296.176 896.769 294.76C896.769 293.248 898.305 292.6 900.681 292.6H902.553ZM917.398 286.768H915.382L912.046 295.576H911.998L908.494 286.768H906.31L910.894 298H912.958L917.398 286.768ZM928.04 294.856C927.152 295.984 926.072 296.56 924.464 296.56C922.424 296.56 920.936 294.904 920.792 292.96H929.864V292.36C929.864 288.64 927.704 286.48 924.536 286.48C921.224 286.48 918.776 288.904 918.776 292.384C918.776 295.648 920.936 298.288 924.464 298.288C926.552 298.288 928.136 297.664 929.456 295.96L928.04 294.856ZM920.792 291.376C921.032 289.48 922.4 288.208 924.464 288.208C926.528 288.208 927.776 289.48 927.848 291.376H920.792ZM932.928 298H934.8V279.856H932.928V298ZM947.142 294.856C946.254 295.984 945.174 296.56 943.566 296.56C941.526 296.56 940.038 294.904 939.894 292.96H948.966V292.36C948.966 288.64 946.806 286.48 943.638 286.48C940.326 286.48 937.878 288.904 937.878 292.384C937.878 295.648 940.038 298.288 943.566 298.288C945.654 298.288 947.238 297.664 948.558 295.96L947.142 294.856ZM939.894 291.376C940.134 289.48 941.502 288.208 943.566 288.208C945.63 288.208 946.878 289.48 946.95 291.376H939.894ZM951.862 298H953.734V292.528C953.734 289.96 954.742 288.352 957.022 288.352C957.358 288.352 957.718 288.4 958.03 288.496L958.15 286.6C957.886 286.504 957.622 286.48 957.382 286.48C955.534 286.48 954.142 287.512 953.638 288.616H953.59C953.59 287.992 953.542 287.368 953.542 286.768H951.766C951.766 287.512 951.862 288.4 951.862 289.432V298ZM959.051 296.2C960.155 297.784 961.523 298.288 963.419 298.288C965.651 298.288 967.907 297.304 967.907 294.76C967.907 292.504 966.227 291.784 964.235 291.4C962.747 291.112 961.403 290.704 961.403 289.768C961.403 288.712 962.579 288.208 963.611 288.208C964.715 288.208 965.507 288.76 965.987 289.552L967.547 288.52C966.779 287.08 965.315 286.48 963.731 286.48C961.643 286.48 959.531 287.608 959.531 289.792C959.531 292.12 961.355 292.576 963.491 293.056C964.691 293.32 965.891 293.632 965.891 294.832C965.891 296.056 964.595 296.56 963.419 296.56C962.099 296.56 961.283 295.96 960.539 295.048L959.051 296.2ZM977.102 303.472H978.974V296.008H979.022C979.718 297.28 981.326 298.288 983.342 298.288C986.486 298.288 988.958 295.744 988.958 292.384C988.958 288.976 986.582 286.48 983.054 286.48C981.422 286.48 980.054 287.2 979.022 288.4H978.974V286.768H977.102V303.472ZM978.974 292.384C978.974 290.032 980.534 288.208 982.958 288.208C985.382 288.208 986.942 290.032 986.942 292.384C986.942 294.736 985.382 296.56 982.958 296.56C980.534 296.56 978.974 294.736 978.974 292.384ZM991.222 292.384C991.222 295.888 993.766 298.288 997.222 298.288C1000.68 298.288 1003.22 295.888 1003.22 292.384C1003.22 288.88 1000.68 286.48 997.222 286.48C993.766 286.48 991.222 288.88 991.222 292.384ZM993.238 292.384C993.238 290.032 994.798 288.208 997.222 288.208C999.646 288.208 1001.21 290.032 1001.21 292.384C1001.21 294.736 999.646 296.56 997.222 296.56C994.798 296.56 993.238 294.736 993.238 292.384ZM1004.87 296.2C1005.98 297.784 1007.34 298.288 1009.24 298.288C1011.47 298.288 1013.73 297.304 1013.73 294.76C1013.73 292.504 1012.05 291.784 1010.06 291.4C1008.57 291.112 1007.22 290.704 1007.22 289.768C1007.22 288.712 1008.4 288.208 1009.43 288.208C1010.54 288.208 1011.33 288.76 1011.81 289.552L1013.37 288.52C1012.6 287.08 1011.14 286.48 1009.55 286.48C1007.46 286.48 1005.35 287.608 1005.35 289.792C1005.35 292.12 1007.18 292.576 1009.31 293.056C1010.51 293.32 1011.71 293.632 1011.71 294.832C1011.71 296.056 1010.42 296.56 1009.24 296.56C1007.92 296.56 1007.1 295.96 1006.36 295.048L1004.87 296.2ZM1022.48 286.768H1019.17V283.576H1017.3V286.768H1014.85V288.352H1017.3V294.52C1017.3 296.848 1017.73 298.288 1020.39 298.288C1021.09 298.288 1021.93 298.168 1022.58 297.88L1022.51 296.176C1022 296.44 1021.4 296.56 1020.85 296.56C1019.19 296.56 1019.17 295.408 1019.17 293.968V288.352H1022.48V286.768ZM918.438 332.472H920.31V325.008H920.358C921.054 326.28 922.662 327.288 924.678 327.288C927.822 327.288 930.294 324.744 930.294 321.384C930.294 317.976 927.918 315.48 924.39 315.48C922.758 315.48 921.39 316.2 920.358 317.4H920.31V315.768H918.438V332.472ZM920.31 321.384C920.31 319.032 921.87 317.208 924.294 317.208C926.718 317.208 928.278 319.032 928.278 321.384C928.278 323.736 926.718 325.56 924.294 325.56C921.87 325.56 920.31 323.736 920.31 321.384ZM934.238 318.432C935.126 317.616 936.374 317.208 937.574 317.208C939.326 317.208 940.358 318.048 940.358 319.68V320.016H939.638C936.878 320.016 932.558 320.232 932.558 323.952C932.558 326.136 934.454 327.288 936.734 327.288C938.438 327.288 939.686 326.472 940.43 325.32H940.478C940.478 325.8 940.478 326.496 940.598 327H942.398C942.302 326.424 942.23 325.704 942.23 325.056V320.232C942.23 317.064 940.838 315.48 937.526 315.48C935.894 315.48 934.214 316.032 933.062 317.208L934.238 318.432ZM940.358 321.6V322.32C940.31 324.144 939.206 325.704 937.046 325.704C935.63 325.704 934.574 325.176 934.574 323.76C934.574 322.248 936.11 321.6 938.486 321.6H940.358ZM945.651 327H947.523V321.528C947.523 318.96 948.579 317.208 951.003 317.208C952.755 317.208 953.571 318.384 953.571 320.256V327H955.443V320.064C955.443 317.352 954.123 315.48 951.171 315.48C949.323 315.48 947.931 316.512 947.427 317.616H947.379C947.379 316.992 947.331 316.368 947.331 315.768H945.555C945.555 316.512 945.651 317.4 945.651 318.432V327ZM968.323 327H970.195V308.856H968.323V317.4H968.275C967.243 316.2 965.875 315.48 964.243 315.48C960.715 315.48 958.339 317.976 958.339 321.384C958.339 324.744 960.811 327.288 963.955 327.288C965.971 327.288 967.579 326.28 968.275 325.008H968.323V327ZM968.323 321.384C968.323 323.736 966.763 325.56 964.339 325.56C961.915 325.56 960.355 323.736 960.355 321.384C960.355 319.032 961.915 317.208 964.339 317.208C966.763 317.208 968.323 319.032 968.323 321.384ZM982.275 323.856C981.387 324.984 980.307 325.56 978.699 325.56C976.659 325.56 975.171 323.904 975.027 321.96H984.099V321.36C984.099 317.64 981.939 315.48 978.771 315.48C975.459 315.48 973.011 317.904 973.011 321.384C973.011 324.648 975.171 327.288 978.699 327.288C980.787 327.288 982.371 326.664 983.691 324.96L982.275 323.856ZM975.027 320.376C975.267 318.48 976.635 317.208 978.699 317.208C980.763 317.208 982.011 318.48 982.083 320.376H975.027ZM986.995 327H988.867V321.528C988.867 318.96 989.923 317.208 992.347 317.208C993.883 317.208 994.507 318.168 994.507 320.64V327H996.379V320.52C996.379 318.504 997.699 317.208 999.283 317.208C1001.47 317.208 1002.02 318.72 1002.02 320.28V327H1003.89V320.184C1003.89 317.28 1002.83 315.48 999.619 315.48C997.915 315.48 996.883 316.296 996.067 317.616C995.707 316.848 994.939 315.48 992.515 315.48C990.667 315.48 989.275 316.512 988.771 317.616H988.723C988.723 316.992 988.675 316.368 988.675 315.768H986.899C986.899 316.512 986.995 317.4 986.995 318.432V327ZM1007.6 327H1009.47V315.768H1007.6V327ZM1007.17 311.376C1007.17 312.168 1007.74 312.744 1008.54 312.744C1009.33 312.744 1009.9 312.168 1009.9 311.376C1009.9 310.632 1009.3 310.008 1008.54 310.008C1007.77 310.008 1007.17 310.632 1007.17 311.376ZM1022.68 317.256C1021.55 316.032 1020.01 315.48 1018.36 315.48C1014.9 315.48 1012.55 317.976 1012.55 321.384C1012.55 324.84 1014.88 327.288 1018.36 327.288C1019.99 327.288 1021.53 326.736 1022.61 325.488L1021.21 324.168C1020.52 325.128 1019.58 325.56 1018.36 325.56C1016.08 325.56 1014.57 323.688 1014.57 321.384C1014.57 319.08 1015.84 317.208 1018.36 317.208C1019.49 317.208 1020.4 317.616 1021.19 318.576L1022.68 317.256Z" fill="white"/>
<rect x="805" y="367" width="218" height="64" rx="15" fill="#636A9E"/>
<path d="M839.516 407H841.298L847.392 391.424H845.434L840.484 404.228H840.44L835.644 391.424H833.554L839.516 407ZM848.983 407H850.699V396.704H848.983V407ZM848.587 392.678C848.587 393.404 849.115 393.932 849.841 393.932C850.567 393.932 851.095 393.404 851.095 392.678C851.095 391.996 850.545 391.424 849.841 391.424C849.137 391.424 848.587 391.996 848.587 392.678ZM862.012 404.118C861.198 405.152 860.208 405.68 858.734 405.68C856.864 405.68 855.5 404.162 855.368 402.38H863.684V401.83C863.684 398.42 861.704 396.44 858.8 396.44C855.764 396.44 853.52 398.662 853.52 401.852C853.52 404.844 855.5 407.264 858.734 407.264C860.648 407.264 862.1 406.692 863.31 405.13L862.012 404.118ZM855.368 400.928C855.588 399.19 856.842 398.024 858.734 398.024C860.626 398.024 861.77 399.19 861.836 400.928H855.368ZM880.705 396.704H878.857L876.525 404.624H876.481L873.775 396.704H871.971L869.309 404.624H869.265L866.911 396.704H865.019L868.363 407H870.123L872.719 399.08H872.763L875.689 407H877.383L880.705 396.704ZM901.595 393.47C900.275 391.754 898.207 391.028 896.095 391.028C891.475 391.028 888.175 394.636 888.175 399.212C888.175 403.942 891.629 407.396 896.095 407.396C898.581 407.396 900.605 406.538 901.991 404.668L900.605 403.502C899.505 404.91 897.987 405.68 896.095 405.68C892.597 405.68 890.155 402.82 890.155 399.212C890.155 395.802 892.619 392.744 896.095 392.744C897.591 392.744 899.065 393.382 899.989 394.636L901.595 393.47ZM905.205 399.146C906.019 398.398 907.163 398.024 908.263 398.024C909.869 398.024 910.815 398.794 910.815 400.29V400.598H910.155C907.625 400.598 903.665 400.796 903.665 404.206C903.665 406.208 905.403 407.264 907.493 407.264C909.055 407.264 910.199 406.516 910.881 405.46H910.925C910.925 405.9 910.925 406.538 911.035 407H912.685C912.597 406.472 912.531 405.812 912.531 405.218V400.796C912.531 397.892 911.255 396.44 908.219 396.44C906.723 396.44 905.183 396.946 904.127 398.024L905.205 399.146ZM910.815 402.05V402.71C910.771 404.382 909.759 405.812 907.779 405.812C906.481 405.812 905.513 405.328 905.513 404.03C905.513 402.644 906.921 402.05 909.099 402.05H910.815ZM914.523 405.35C915.535 406.802 916.789 407.264 918.527 407.264C920.573 407.264 922.641 406.362 922.641 404.03C922.641 401.962 921.101 401.302 919.275 400.95C917.911 400.686 916.679 400.312 916.679 399.454C916.679 398.486 917.757 398.024 918.703 398.024C919.715 398.024 920.441 398.53 920.881 399.256L922.311 398.31C921.607 396.99 920.265 396.44 918.813 396.44C916.899 396.44 914.963 397.474 914.963 399.476C914.963 401.61 916.635 402.028 918.593 402.468C919.693 402.71 920.793 402.996 920.793 404.096C920.793 405.218 919.605 405.68 918.527 405.68C917.317 405.68 916.569 405.13 915.887 404.294L914.523 405.35ZM932.932 404.118C932.118 405.152 931.128 405.68 929.654 405.68C927.784 405.68 926.42 404.162 926.288 402.38H934.604V401.83C934.604 398.42 932.624 396.44 929.72 396.44C926.684 396.44 924.44 398.662 924.44 401.852C924.44 404.844 926.42 407.264 929.654 407.264C931.568 407.264 933.02 406.692 934.23 405.13L932.932 404.118ZM926.288 400.928C926.508 399.19 927.762 398.024 929.654 398.024C931.546 398.024 932.69 399.19 932.756 400.928H926.288ZM952.6 392.854C951.456 391.512 949.982 391.028 948.244 391.028C945.516 391.028 942.942 392.524 942.942 395.516C942.942 398.112 944.614 399.08 946.814 399.806C949.586 400.73 950.884 401.06 950.884 402.974C950.884 404.756 949.08 405.68 947.496 405.68C946.154 405.68 944.834 405.086 944.174 403.942L942.59 405.24C943.646 406.802 945.582 407.396 947.386 407.396C950.202 407.396 952.864 405.944 952.864 402.842C952.864 399.784 950.62 398.992 948.2 398.222C945.714 397.43 944.922 396.792 944.922 395.362C944.922 393.514 946.616 392.744 948.244 392.744C949.366 392.744 950.466 393.184 951.082 394.174L952.6 392.854ZM961.239 396.704H958.203V393.778H956.487V396.704H954.243V398.156H956.487V403.81C956.487 405.944 956.883 407.264 959.325 407.264C959.963 407.264 960.733 407.154 961.327 406.89L961.261 405.328C960.799 405.57 960.249 405.68 959.743 405.68C958.225 405.68 958.203 404.624 958.203 403.304V398.156H961.239V396.704ZM972.317 396.704H970.601V401.72C970.601 404.074 969.633 405.68 967.411 405.68C965.805 405.68 965.057 404.602 965.057 402.886V396.704H963.341V403.062C963.341 405.548 964.551 407.264 967.257 407.264C968.951 407.264 970.227 406.318 970.689 405.306H970.733C970.733 405.878 970.777 406.45 970.777 407H972.405C972.405 406.318 972.317 405.504 972.317 404.558V396.704ZM984.124 407H985.84V390.368H984.124V398.2H984.08C983.134 397.1 981.88 396.44 980.384 396.44C977.15 396.44 974.972 398.728 974.972 401.852C974.972 404.932 977.238 407.264 980.12 407.264C981.968 407.264 983.442 406.34 984.08 405.174H984.124V407ZM984.124 401.852C984.124 404.008 982.694 405.68 980.472 405.68C978.25 405.68 976.82 404.008 976.82 401.852C976.82 399.696 978.25 398.024 980.472 398.024C982.694 398.024 984.124 399.696 984.124 401.852ZM997.771 396.704H995.901L992.843 404.778H992.799L989.609 396.704H987.607L991.875 407.066L991.171 409.002C990.797 410.014 990.379 410.696 989.257 410.696C988.773 410.696 988.399 410.652 988.047 410.52L987.827 412.016C988.289 412.236 988.883 412.28 989.367 412.28C991.435 412.28 992.117 411.092 992.799 409.354L997.771 396.704Z" fill="white"/>
</g>
<defs>
<filter id="filter0_d" x="0" y="0" width="1179" height="509" filterUnits="userSpaceOnUse" color-interpolation-filters="sRGB">
<feFlood flood-opacity="0" result="BackgroundImageFix"/>
<feColorMatrix in="SourceAlpha" type="matrix" values="0 0 0 0 0 0 0 0 0 0 0 0 0 0 0 0 0 0 127 0" result="hardAlpha"/>
<feOffset dy="4"/>
<feGaussianBlur stdDeviation="10"/>
<feComposite in2="hardAlpha" operator="out"/>
<feColorMatrix type="matrix" values="0 0 0 0 0 0 0 0 0 0 0 0 0 0 0 0 0 0 0.25 0"/>
<feBlend mode="normal" in2="BackgroundImageFix" result="effect1_dropShadow"/>
<feBlend mode="normal" in="SourceGraphic" in2="effect1_dropShadow" result="shape"/>
</filter>
<linearGradient id="paint0_linear" x1="589.5" y1="16" x2="589.5" y2="485" gradientUnits="userSpaceOnUse">
<stop stop-color="#4B517E"/>
<stop offset="1" stop-color="#232B63"/>
</linearGradient>
</defs>
</svg>
